<?xml version="1.0" standalone="no"?>
<!DOCTYPE svg PUBLIC "-//W3C//DTD SVG 1.1//EN" "http://www.w3.org/Graphics/SVG/1.1/DTD/svg11.dtd" >
<svg xmlns="http://www.w3.org/2000/svg">
<metadata>
This is a custom SVG webfont generated by Font Squirrel.
Copyright   : Copyright c 2004 Larry Snyder Based on Bitstream Vera Sans Copyright c 2003 by Bitstream Inc Font renamed in accordance with formers license Please do not contact Bitstream Inc for any reason regarding this font
Foundry URL : httpwwwwinehqorg
</metadata>
<defs>
<font id="TahomaBold" horiz-adv-x="1304" >
<font-face units-per-em="2048" ascent="1638" descent="-410" />
<missing-glyph horiz-adv-x="600" />
<glyph unicode=" "  horiz-adv-x="600" />
<glyph unicode="&#x09;" horiz-adv-x="600" />
<glyph unicode="&#xa0;" horiz-adv-x="600" />
<glyph unicode="!" horiz-adv-x="702" d="M227 0v254h203v-254h-203zM227 838v655h203v-655l-20 -357h-162z" />
<glyph unicode="&#x22;" horiz-adv-x="1002" d="M115 938v555h170v-555h-170zM493 938v555h170v-555h-170z" />
<glyph unicode="#" horiz-adv-x="1676" d="M141 421v135h293l92 376h-268v135h303l105 422h129l-105 -422h270l105 422l134 -3l-110 -419h258v-135l-291 -1l-94 -375h268v-135h-303l-105 -421h-114l103 414h-293l-103 -414h-121l105 421h-258zM561 556h273l102 378h-282z" />
<glyph unicode="$" d="M106 956q0 336 422 365v235h100v-232q186 -8 350 -62v-175q-166 84 -350 92v-427q441 -68 441 -371q0 -349 -441 -381v-301h-100l-1 301q-213 4 -392 85l6 194q168 -135 387 -137v456q-95 16 -165.5 39.5t-131.5 64t-93 104.5t-32 150zM290 973q0 -163 238 -203v410 q-238 -27 -238 -207zM628 145q256 34 256 217q0 170 -256 216v-433z" />
<glyph unicode="%" horiz-adv-x="2455" d="M102 1079q0 183 90.5 294.5t253.5 111.5q165 0 255.5 -111t90.5 -295q0 -187 -89.5 -297t-256.5 -110q-164 0 -254 111t-90 296zM261 1079q0 -50 8.5 -96t28 -89t57.5 -69t91 -26q93 0 139.5 78t46.5 202q0 121 -47 200t-139 79q-93 0 -139 -78t-46 -201zM530 0l780 1489 h160l-780 -1489h-160zM1186 413q0 185 91 296t255 111t254 -111t90 -296q0 -183 -90.5 -294.5t-253.5 -111.5q-165 0 -255.5 111t-90.5 295zM1346 413q0 -121 47 -200t139 -79q91 0 137.5 78.5t46.5 200.5t-46 201t-138 79q-93 0 -139.5 -78t-46.5 -202z" />
<glyph unicode="&#x26;" horiz-adv-x="1600" d="M68 440q0 253 218 432q-139 163 -139 284q0 167 111 263t295 96q163 0 333 -72v-182q-178 96 -313 96q-102 0 -169 -54.5t-67 -144.5q0 -94 150 -248l508 -520q119 182 131 406h186q-24 -265 -209 -516l279 -285h-252l-143 147q-206 -176 -463 -176q-142 -16 -294 111 q-162 136 -162 363zM261 452q0 -154 111 -249q105 -92 170 -75q189 0 334 127l-439 527q-176 -158 -176 -330z" />
<glyph unicode="'" horiz-adv-x="564" d="M104 938v555h170v-555h-170z" />
<glyph unicode="(" horiz-adv-x="930" d="M109 629q0 445 340 935h160q-305 -479 -305 -935q23 -578 328 -1009h-160q-341 444 -363 1009z" />
<glyph unicode=")" horiz-adv-x="930" d="M74 -383q302 431 321 1004q0 454 -301 935h160q336 -494 336 -935q-20 -560 -356 -1004h-160z" />
<glyph unicode="*" d="M113 858l359 195l-359 194l58 99l336 -203v377h114v-377l336 203l58 -99l-359 -194l359 -195l-58 -98l-336 203v-377h-114v377l-336 -203z" />
<glyph unicode="+" horiz-adv-x="1676" d="M158 572v160l504 -5v510h168v-510l504 5v-160h-504l-1 -505h-167v505h-504z" />
<glyph unicode="," horiz-adv-x="640" d="M74 -243l82 320v172h211v-172l-164 -320h-129z" />
<glyph unicode="-" horiz-adv-x="883" d="M90 566v164h539v-164h-539z" />
<glyph unicode="." horiz-adv-x="640" d="M190 0v254h211v-254h-211z" />
<glyph unicode="/" horiz-adv-x="1182" d="M-25 -191l520 1683h170l-520 -1683h-170z" />
<glyph unicode="0" d="M83 743q0 171 23 303t64.5 220t103 144.5t133.5 81t160 24.5q107 0 184 -27t132.5 -83t88.5 -149t48 -217t15 -295q0 -177 -21 -310t-59.5 -221.5t-98.5 -143.5t-132 -78t-165 -23q-97 0 -174 29.5t-128 85.5t-86 125.5t-54 161t-26.5 179.5t-7.5 193zM286 743 q0 -325 58 -467t215 -142q64 0 112 27.5t78.5 76.5t49 126.5t26 168.5t7.5 212q0 120 -7.5 210.5t-26 168t-49 126.5t-78.5 76.5t-112 27.5t-112 -27.5t-78.5 -77t-49 -127t-26 -168.5t-7.5 -211z" />
<glyph unicode="1" d="M225 1236v184l274 72h202v-1323l289 1v-170h-736v169h247v1139z" />
<glyph unicode="2" d="M109 0v170l563 578q174 188 174 333q0 123 -83 196t-218 73q-188 0 -426 -133v204q246 99 422 99q229 0 368.5 -112t139.5 -314q0 -176 -160 -369q-95 -114 -262 -281l-275 -274h705v-170h-948z" />
<glyph unicode="3" d="M96 45v195q169 -99 316 -91q389 0 389 293q0 137 -94.5 209t-255.5 72h-174v166h182q161 0 252.5 53.5t91.5 164.5q0 117 -96 184t-256 67q-165 0 -310 -82v180q151 72 328 72q145 0 265 -45.5t195 -138t75 -216.5q0 -129 -65.5 -205t-202.5 -111q266 -59 266 -370 q0 -107 -35 -190t-91.5 -133.5t-135 -83t-156.5 -44.5t-166 -12q-186 0 -322 66z" />
<glyph unicode="4" d="M40 690l630 803h204v-801h213v-168h-213v-524h-201v524h-632zM287 690l388 2v493z" />
<glyph unicode="5" d="M125 52v211q97 -51 187 -82.5t178 -40t154 13t110 86.5t52 172q11 154 -52.5 242.5t-198.5 106.5q-150 20 -369 -41q-2 134 0 384.5t0 384.5h817v-177h-624v-402q131 7 228 -1t180.5 -37.5t134 -84t75.5 -143t18 -212.5q-32 -500 -533 -459q-164 14 -357 79z" />
<glyph unicode="6" d="M95 499q-41 626 246 877q226 196 583 119v-190q-172 60 -304.5 28t-216.5 -143t-107 -280q-5 -41 -11 -105q90 59 151.5 80t157.5 27q123 7 225 -40t166 -144.5t68 -228.5q4 -125 -32.5 -224t-91 -154.5t-123.5 -91.5t-121 -48t-93 -12q-216 -6 -348.5 138t-148.5 392z M293 497q-8 -49 7 -109t49 -117q43 -71 123 -110t165.5 -25.5t136.5 85.5q28 40 46 91.5t24.5 98t5.5 86.5q-4 120 -76.5 181t-181.5 52q-264 -22 -299 -233z" />
<glyph unicode="7" d="M98 1314v175l940 4v-86l-542 -1407h-211l515 1314h-702z" />
<glyph unicode="8" d="M81.5 371q-6.5 82 15 160t85 148.5t161.5 116.5q-89 43 -144 107.5t-71 134t-7 140.5t42.5 132t83.5 104q122 107 321 107q56 -1 111 -10.5t117.5 -36t109 -67t78 -109.5t32.5 -157q4 -210 -227 -351q313 -165 260 -443q-16 -84 -53 -151.5t-86.5 -110.5t-110.5 -72 t-125 -39t-129.5 -8t-125 17.5t-111 41.5t-86.5 59q-60 57 -97 131t-43.5 156zM290.5 448q-13.5 -73 10.5 -146t83 -121q82 -66 191.5 -69.5t177.5 60.5q47 43 72 101.5t26 117.5t-18 117.5t-54.5 104t-90 75t-118.5 33.5q-71 4 -133 -34t-97.5 -102t-49 -137zM318 1169.5 q-1 -39.5 6 -78.5t22 -72t34 -55q36 -43 105 -64t145 -9.5t123 57.5q42 41 58.5 109t1 139t-62.5 114q-66 62 -183 63q-64 0 -113 -17t-76.5 -45.5t-43 -65t-16.5 -76z" />
<glyph unicode="9" d="M120 1169q4 22 10 43.5t22 58.5t37 68t58 66t82.5 58.5t113 39.5t147.5 16q178 0 287.5 -86t163.5 -259q47 -160 40.5 -372t-58.5 -375q-21 -63 -68.5 -164t-93.5 -147q-69 -71 -151 -107t-158 -37.5t-149.5 20.5t-129.5 62t-93.5 92t-45.5 106h229q50 -69 120 -89 t144.5 14.5t133.5 121.5q49 74 69.5 129.5t43.5 175.5q29 138 13 243q-4 -3 -27.5 -25.5t-45 -38t-56.5 -35.5t-81.5 -30.5t-100.5 -10.5q-75 0 -148.5 21t-135.5 62t-106.5 96t-63 128.5t-2.5 154.5zM321 1167q-18 -124 58 -213q74 -87 197 -87q110 0 184 83q75 83 75 215 q-4 58 -26.5 100.5t-55.5 64t-74 32t-82.5 9t-80 -8.5t-67.5 -18t-45 -22q-68 -53 -83 -155z" />
<glyph unicode=":" horiz-adv-x="744" d="M244 31v254h211v-254h-211zM244 836v254h211v-254h-211z" />
<glyph unicode=";" horiz-adv-x="744" d="M123 -238l82 320v172h211v-172l-164 -320h-129zM205 805v254h211v-254h-211z" />
<glyph unicode="&#x3c;" horiz-adv-x="1676" d="M201 573v166l1083 463v-182l-833 -365l833 -367v-182z" />
<glyph unicode="=" horiz-adv-x="1676" d="M193 362v160h1106v-160h-1106zM193 782v160h1106v-160h-1106z" />
<glyph unicode="&#x3e;" horiz-adv-x="1676" d="M215 106v182l842 364l-842 368v182l1073 -467v-166z" />
<glyph unicode="?" horiz-adv-x="1160" d="M109 1219v188q188 113 390 113q183 0 295 -94.5t112 -258.5q0 -141 -162 -299l-88 -86q-73 -71 -89.5 -114t-16.5 -144v-123h-191v154q0 102 28.5 166t117.5 151l90 89q108 107 108 196q0 94 -66 146.5t-173 52.5q-155 0 -355 -137zM353 0v254h203v-254h-203z" />
<glyph unicode="@" horiz-adv-x="1884" d="M131 560q0 390 163 649q264 327 653 327q441 0 707 -410q106 -205 106 -455q0 -245 -166 -422q-127 -135 -385 -29v154q-117 -150 -318 -150q-177 0 -282 125t-105 324q0 200 104.5 325t282.5 125q201 0 318 -151v131h143v-736q80 -46 122.5 -39.5t68.5 63.5 q35 75 54 138t19 138q0 218 -79 379q-223 346 -588 346q-249 0 -460 -175q-35 -34 -57.5 -61t-56 -84t-53.5 -120.5t-35 -166t-15 -225.5q22 -318 238 -476q217 -157 543 -157q266 0 482 168l90 -111q-260 -200 -572 -200q-397 0 -640.5 208t-281.5 568zM664 673 q0 -142 69 -224t197 -82q126 0 195 82.5t69 223.5q0 139 -70 222t-196 83t-195 -82.5t-69 -222.5z" />
<glyph unicode="A" horiz-adv-x="1402" d="M-10 0l510 1493h229l509 -1493h-209l-135 416h-569l-135 -416h-200zM380 585h459l-225 709z" />
<glyph unicode="B" horiz-adv-x="1405" d="M152 0v1493h439q210 0 347 -64q154 -77 154 -268q0 -14 -1 -28q-42 -276 -271 -328q79 0 140 -23t98 -59.5t61 -88.5t33 -104.5t8 -111.5q-6 -52 -20 -98.5t-40 -95.5t-68 -88t-99 -70.5t-139.5 -48.5t-182.5 -17h-459zM350 169q64 -3 121 -3q95 0 169 9 q119 15 185.5 54.5t96.5 92t34 127.5v20q0 29 -4 53q-6 34 -16 57.5t-27 43t-32 31t-37 21.5t-35 14.5t-33 10.5q-81 22 -263 22q-71 0 -157 -3v-58q0 -75 -1 -217t-1 -217v-58zM350 877h226q149 0 229.5 62.5t80.5 184.5q0 100 -80.5 151.5t-229.5 51.5h-226v-450z" />
<glyph unicode="C" horiz-adv-x="1367" d="M66 743q0 354 166.5 552.5t480.5 220.5q29 2 57 2q96 0 177 -24q105 -31 249 -104v-239q-76 64 -152 107.5t-138 61.5t-110 24q-27 3 -51 4q-18 0 -34 -2q-439 -55 -439 -577v-26q0 -131 27 -234t69 -167t102 -107.5t117.5 -63t123.5 -27.5q21 -2 42 -3q193 0 443 196 v-236q-84 -52 -178 -84q-95 -31 -192 -41q-43 -4 -85 -5q-55 0 -107 7q-94 12 -181 51.5t-159 101.5t-125.5 157t-78.5 214q-24 112 -24 241z" />
<glyph unicode="D" horiz-adv-x="1551" d="M152 0v1489h331q425 0 632.5 -175.5t207.5 -567.5t-208.5 -569t-631.5 -177h-331zM350 162h164q303 0 449.5 141.5t146.5 442.5q0 302 -145 440.5t-451 138.5h-164v-1163z" />
<glyph unicode="E" horiz-adv-x="1260" d="M152 0v1489h931v-176h-733v-408h683v-176h-683v-553h733v-176h-931z" />
<glyph unicode="F" horiz-adv-x="1190" d="M152 0v1489h891v-176h-693v-420h664v-176h-664v-717h-198z" />
<glyph unicode="G" horiz-adv-x="1526" d="M69 702q-1 25 -1 50q0 721 685 764q29 2 58 2q250 0 453 -133q2 -41 3 -123.5t2 -115.5q-258 199 -492 199q-47 0 -92 -6.5t-97.5 -24.5t-97 -47t-86.5 -79t-70.5 -115t-45.5 -159q-13 -80 -13 -173v-35q1 -94 22 -177t54 -139.5t54 -84t43 -49.5q16 -16 36.5 -31.5 t61 -38.5t98.5 -35q47 -10 98 -10q13 0 26 1q164 7 307 48q-1 26 -1 74.5t1 120t1 119t-1 71.5q-21 1 -63.5 1t-107 -1t-107 -1t-63.5 1q1 9 1 31t-1 58q-1 47 -1 70v17h53q71 0 214 -1t214 -1h53q1 -109 1 -325t1 -325q-175 -82 -281 -107.5t-197 -25.5q-114 0 -214.5 23.5 t-192.5 78.5t-159 138t-109 210t-47 286z" />
<glyph unicode="H" horiz-adv-x="1565" d="M152 0v1489h198v-584h685v584h198v-1489h-198v729h-685v-729h-198z" />
<glyph unicode="I" horiz-adv-x="990" d="M92 0v152h188v1185h-188v152h578v-152h-192v-1185h192v-152h-578z" />
<glyph unicode="J" horiz-adv-x="1025" d="M8 -240h63q151 0 205 102q39 73 72 250l-5 1377h203v-1372q-5 -273 -117 -385q-105 -144 -344 -144h-77v172z" />
<glyph unicode="K" horiz-adv-x="1426" d="M152 0v1489h198v-665l610 665h241l-615 -665l651 -824h-257l-630 775v-775h-198z" />
<glyph unicode="L" horiz-adv-x="1172" d="M152 0v1493h198v-1323h665v-170h-863z" />
<glyph unicode="M" horiz-adv-x="1829" d="M152 0v1489h270l372 -829l359 829h275v-1489h-198v1283l-388 -873h-120l-385 873v-1283h-185z" />
<glyph unicode="N" horiz-adv-x="1578" d="M152 0v1489h281l599 -1179v1179h185v-1489h-222l-658 1284v-1284h-185z" />
<glyph unicode="O" horiz-adv-x="1577" d="M66 724q0 81 7 154.5t26 153.5t49.5 146.5t80 128.5t114.5 105.5t156 71t202 31.5q15 1 29 1q91 0 176 -22q100 -25 180 -77t133 -121t90 -152.5t53 -172.5t20 -180q1 -22 1 -44q0 -68 -8 -133q-11 -86 -32 -162t-51 -136q-52 -106 -130.5 -181t-165.5 -111 q-88 -36 -182 -49q-47 -6 -92.5 -6.5t-89.5 6.5q-88 13 -165 42t-133 72q-268 206 -268 635zM270 727q2 -95 16 -176t48 -159.5t86 -132.5q52 -55 134 -87q76 -30 170 -30q9 0 18 1q92 2 171 39q86 41 145 118t84.5 168t32.5 193q2 36 2 70q0 64 -8 126q-13 94 -37 172.5 t-54 127.5q-62 97 -151.5 141t-211.5 47h-9q-55 0 -107 -12q-56 -13 -120 -54t-109.5 -106t-74.5 -180q-25 -101 -25 -230v-36z" />
<glyph unicode="P" horiz-adv-x="1346" d="M154 -10v1489h199q217 0 358 -23.5t229 -79.5q90 -57 124 -146q30 -78 30 -192q0 -17 -1 -34q-5 -105 -45.5 -187t-107 -135.5t-158.5 -86.5q-94 -33 -200 -45q-70 -8 -147 -7q-40 0 -83 2v-555h-198zM352 714h228q35 4 74.5 13.5t92.5 35t83 59.5q58 63 58 182 q0 92 -26 150t-82 97q-50 35 -138 47q-76 11 -184 10h-36q-47 1 -70 1v-595z" />
<glyph unicode="Q" horiz-adv-x="1577" d="M66 744q0 340 147 551q185 225 519 225t518 -226q147 -212 147 -550q0 -537 -382 -717l266 -291h-244l-221 239l-50 -3q-11 -1 -34 -1q-333 0 -519 225q-147 208 -147 548zM279 744q0 -254 83 -418q128 -191 370 -191q244 0 344 190q108 163 108 419q0 252 -83 420 q-127 192 -369 192t-370 -192q-83 -168 -83 -420z" />
<glyph unicode="R" horiz-adv-x="1487" d="M152 0v1493h359q288 0 430.5 -105.5t142.5 -324.5q0 -173 -89 -278t-235 -105q140 -47 253 -272l205 -408h-217l-211 361q-51 81 -126 170q-48 61 -176 61h-138v-592h-198zM350 757h227q144 21 222 94.5t78 196.5q0 137 -80 204t-229 67h-218v-562z" />
<glyph unicode="S" horiz-adv-x="1297" d="M78 101v208q222 -162 447 -162q361 0 361 262q0 210 -289 265l-123 24q-204 40 -259 115q-126 101 -126 289q0 216 160 328q95 88 321 102q212 0 469 -88v-197q-260 120 -400 122q-344 0 -344 -246q0 -115 90 -169q53 -33 195 -62l76 -26q211 -43 314 -134 q127 -109 127 -308q0 -441 -572 -441q-215 0 -447 118z" />
<glyph unicode="T" horiz-adv-x="1254" d="M0 1489h1198l3 -171h-500v-1318h-203v1318h-495z" />
<glyph unicode="U" horiz-adv-x="1513" d="M166 561v928h198l-7 -894q9 -241 52 -333q87 -127 296 -127t296 127q40 110 41 322l3 905h198v-929q2 -32 2 -63q0 -526 -540 -526q-541 0 -541 527q0 31 2 63z" />
<glyph unicode="V" horiz-adv-x="1382" d="M-8 1489h212l407 -1253l417 1253h202l-504 -1489h-229z" />
<glyph unicode="W" horiz-adv-x="2105" d="M27 1489h203l300 -1238l281 1242h227l292 -1254l298 1250h194l-374 -1489h-223l-303 1236l-296 -1236h-218z" />
<glyph unicode="X" horiz-adv-x="1402" d="M8 0l473 745l-457 748h217l363 -589l381 589h217l-488 -738l467 -755h-227l-363 596l-369 -596h-214z" />
<glyph unicode="Y" horiz-adv-x="1373" d="M-10 1489h220l384 -657l390 657h210l-503 -830l2 -659h-203l3 638z" />
<glyph unicode="Z" horiz-adv-x="1275" d="M59 0v184l797 1129h-761v176h984v-176l-806 -1137h826v-176h-1040z" />
<glyph unicode="[" horiz-adv-x="930" d="M166 -270v1826h424v-143h-240v-1540h240v-143h-424z" />
<glyph unicode="\" horiz-adv-x="1182" d="M51 1493h170l520 -1683h-170z" />
<glyph unicode="]" horiz-adv-x="930" d="M98 -136h239v1540h-239v143h424v-1826h-424v143z" />
<glyph unicode="^" horiz-adv-x="1676" d="M133 925l505 557h196l503 -552l-195 -5l-407 373l-402 -373h-200z" />
<glyph unicode="_" d="M-16 -169h1064v-143h-1064v143z" />
<glyph unicode="`" horiz-adv-x="1118" d="M248 1676h243l179 -374h-149z" />
<glyph unicode="a" horiz-adv-x="1226" d="M57 324q0 381 513 396l189 15v-10q17 48 17 88q0 71 -54 116q-76 64 -213 64q-179 0 -337 -92v170q188 78 355 78q419 -2 419 -510v-639h-187l7 151q-120 -178 -317 -178h-4h-16q-190 0 -279 92q-93 96 -93 259zM228 336q0 -100 81 -155q81 -54 182 -54h2q108 0 192 123 q74 110 74 272v41h-171h-16q-111 0 -180 -27q-164 -53 -164 -200z" />
<glyph unicode="b" horiz-adv-x="1294" d="M135 0v1556h188v-556q60 130 335 130q132 0 227.5 -80.5t141 -210t45.5 -291.5q0 -271 -97 -396q-74 -95 -157 -141t-160 -46q-263 0 -334 127v-93zM312 540q0 -120 10 -174.5t30 -97.5q41 -84 91.5 -117t118.5 -33q208 0 282 147q56 115 56 283q0 167 -56 282 q-74 147 -282 147q-54 0 -99.5 -25.5t-74 -67t-46 -87.5t-22.5 -93q-8 -63 -8 -164z" />
<glyph unicode="c" horiz-adv-x="1080" d="M82 583q0 270 158 419q131 119 383 137q160 -17 309 -86v-157q-158 86 -315 86q-190 0 -252 -92q-89 -113 -89 -307q-4 -43 -4 -82q0 -156 70 -245q68 -122 257 -122q161 0 306 121l9 -205q-154 -72 -335 -72q-262 0 -379 163q-121 135 -121 365q0 37 3 77z" />
<glyph unicode="d" horiz-adv-x="1289" d="M59 559q0 237 108 400q125 188 280 193q245 0 359 -197v606h184v-1556h-184v168q-114 -197 -359 -197h-8q-150 0 -272 183q-108 163 -108 400zM249 559q0 -178 66 -292q79 -137 171 -137h6q164 0 247 141q67 115 67 293t-67 293q-83 141 -247 141q-94 -4 -177 -147 q-66 -114 -66 -292z" />
<glyph unicode="e" horiz-adv-x="1216" d="M59 572q0 119 28 211t96 181q138 178 394 178q229 0 352 -162q61 -80 86 -161t25 -189v-91h-800q12 -192 106.5 -300t274.5 -108q197 0 381 105v-175q-192 -87 -391 -87q-262 0 -407 159.5t-145 438.5zM246 683h620q0 100 -46 183t-113 104q-51 15 -129 15 q-142 0 -232.5 -91t-99.5 -211z" />
<glyph unicode="f" horiz-adv-x="783" d="M29 980v143l117 -3v78q0 186 88 272t275 86h174v-153h-176q-99 0 -138 -42q-38 -41 -38 -142v-99h303v-143h-303v-977h-185v977z" />
<glyph unicode="g" horiz-adv-x="1289" d="M59 573q0 237 108 394q124 180 280 192q33 5 63 5q197 0 296 -202v170h184v-981q0 -563 -516 -563q-21 -2 -44 -2q-106 0 -236 47v179q139 -75 227 -75q13 0 24 1q361 0 361 380v91q-113 -197 -359 -197q-10 -1 -19 -1q-145 0 -261 169q-108 158 -108 393zM249 573 q0 -178 66 -286q74 -122 161 -122q8 0 16 1q166 0 247 133q67 109 67 286q0 179 -66 287q-76 134 -222 134q-13 0 -26 -1q-96 -12 -177 -146q-66 -109 -66 -286z" />
<glyph unicode="h" horiz-adv-x="1311" d="M135 0v1556h185v-610q130 201 362 201q328 0 328 -471v-676h-184v670q0 317 -185 317q-155 0 -241 -101q-80 -95 -80 -253v-633h-185z" />
<glyph unicode="i" horiz-adv-x="618" d="M127 0v1120h184v-1120h-184zM127 1323v233h184v-233h-184z" />
<glyph unicode="j" horiz-adv-x="743" d="M-90 -255h49q117 0 155 69q26 50 26 181v1140h184v-1140q0 -201 -70 -295q-83 -112 -274 -112h-70v157zM140 1338v233h184v-233h-184z" />
<glyph unicode="k" horiz-adv-x="1234" d="M135 0v1556h185v-919l425 483h235l-441 -511l466 -609h-240l-445 547v-547h-185z" />
<glyph unicode="l" horiz-adv-x="618" d="M139 0v1556h184v-1556h-184z" />
<glyph unicode="m" horiz-adv-x="1953" d="M135 0v1117h193v-171q104 200 302 200q211 0 281 -241q112 241 328 241q216 -3 294 -162q58 -117 58 -310v-674h-188v668q-1 307 -207 319q-136 0 -203 -115q-41 -69 -41 -169q0 -34 5 -72v-631h-188v668q1 18 1 36q0 283 -184 283q-134 0 -202 -116q-56 -95 -56 -237 l-5 -634h-188z" />
<glyph unicode="n" horiz-adv-x="1311" d="M135 0v1120h188v-174q131 201 325 201q363 0 363 -406q0 -31 -2 -65v-676h-184v670q3 34 3 65q0 252 -221 252q-156 0 -204 -101q-80 -95 -80 -253v-633h-188z" />
<glyph unicode="o" horiz-adv-x="1264" d="M57 559q0 263 124 417q135 171 390 171q224 -1 360 -172q124 -154 124 -417t-124 -417q-134 -170 -357 -170h-3q-255 0 -390 171q-124 154 -124 417zM251 559q0 -179 69 -293q82 -139 251 -139h2q132 0 217 139q70 115 70 292t-70 292q-84 140 -219 141q-166 0 -250 -139 q-70 -115 -70 -293z" />
<glyph unicode="p" horiz-adv-x="1289" d="M135 -412l3 1509h176v-161q50 186 282 186q214 0 333 -179q103 -154 103 -379q0 -226 -103 -380q-119 -179 -333 -179q-232 0 -282 81l-3 -498h-176zM314 565q0 -167 41 -279q41 -134 198 -134t235 134q62 110 62 278q0 167 -62 277q-78 134 -235 134t-194 -133 q-45 -110 -45 -277z" />
<glyph unicode="q" horiz-adv-x="1289" d="M59 559q0 237 108 400q134 202 280 202q253 0 361 -122v125h184v-1576h-186v594q-114 -197 -359 -197q-164 0 -280 174q-108 163 -108 400zM249 559q0 -178 66 -292q75 -129 160 -129q8 0 17 1q164 0 247 141q67 115 67 293t-67 293q-83 141 -247 141q-94 -13 -177 -156 q-66 -114 -66 -292z" />
<glyph unicode="r" horiz-adv-x="888" d="M135 0v1117h188v-172q97 166 353 168q32 0 51 -9v-189q-22 34 -97 34q-24 3 -46 3q-261 0 -261 -363v-589h-188z" />
<glyph unicode="s" horiz-adv-x="1054" d="M68 27v190q197 -104 352 -104h6q270 0 270 170q0 74 -50 115q-44 35 -222 77l-64 15q-119 34 -190 93q-94 76 -94 220q0 173 134 259q113 71 257 73q207 0 358 -60v-174q-158 80 -336 80q-235 -1 -235 -170q0 -81 88 -124q1 -18 119 -44l63 -14q176 -39 252 -97 q109 -82 109 -235q0 -177 -151 -265q-121 -73 -312 -73h-8q-138 0 -346 68z" />
<glyph unicode="t" horiz-adv-x="851" d="M20 977v143h135v318h185v-318h379v-143h-379v-608q0 -127 32 -168q38 -47 158 -47h189v-154h-189q-209 0 -292 80q-83 81 -83 289v608h-135z" />
<glyph unicode="u" horiz-adv-x="1311" d="M127 431v686h184v-679q1 -160 55 -236q51 -72 150 -71h13q121 0 207 101q81 94 81 253v635h184v-1120h-184v172q-132 -201 -327 -201h-15q-171 0 -257 110q-90 115 -91 350z" />
<glyph unicode="v" horiz-adv-x="1185" d="M6 1117h195l311 -883l299 883h195l-422 -1117h-168z" />
<glyph unicode="w" horiz-adv-x="1822" d="M31 1117h184l197 -865l265 865h155l272 -865l201 868h184l-293 -1120h-174l-273 861l-271 -861h-173z" />
<glyph unicode="x" horiz-adv-x="1238" d="M10 1120h217l297 -399l272 396h217l-380 -542l380 -575h-217l-280 440l-284 -440h-217l393 586z" />
<glyph unicode="y" horiz-adv-x="1179" d="M6 1117h195l308 -879l309 879h195l-440 -1219q-37 -174 -90 -234q-83 -93 -229 -93h-147v154h108q91 0 140 61q28 35 71 145l16 69z" />
<glyph unicode="z" horiz-adv-x="1030" d="M49 0v167l635 805h-612v145h802v-166l-635 -805h635v-146h-825z" />
<glyph unicode="{" horiz-adv-x="1276" d="M59 541v143h61q141 0 197 62q53 59 53 202v240q0 225 97 301q86 67 321 67h62v-143h-68q-137 0 -182 -46q-45 -47 -45 -183v-248q0 -140 -35 -208q-44 -87 -166 -116q122 -30 166 -117q35 -72 35 -208v-248q0 -137 45 -183t182 -46h68v-144h-62q-237 0 -321 66 q-97 76 -97 303v239q0 146 -52 204q-56 63 -198 63h-61z" />
<glyph unicode="|" d="M307 -483v2048h170v-2048h-170z" />
<glyph unicode="}" horiz-adv-x="1276" d="M98 -190h70q138 0 181 45q44 47 44 184v248q0 136 35 208q44 87 166 117q-122 27 -167 116q-34 67 -34 208v248q0 136 -44 183q-43 46 -181 46h-70v143h63q234 0 320 -67q96 -77 96 -301v-240q0 -143 53 -202q56 -62 197 -62h62v-143h-62q-143 0 -198 -63 q-52 -58 -52 -204v-239q0 -227 -96 -303q-84 -66 -320 -66h-63v144z" />
<glyph unicode="~" horiz-adv-x="1676" d="M133 467v178q196 148 381 148q108 0 257 -60q189 -76 286 -76q162 0 358 160v-178q-195 -147 -381 -147q-105 0 -256 59l-38 14q-163 62 -249 62q-171 0 -358 -160z" />
<glyph unicode="&#xa1;" horiz-adv-x="702" d="M430 1493v-254h-203v254h203zM430 655v-655h-203v655l20 357h162z" />
<glyph unicode="&#xa2;" d="M115 559q0 253 126 405q130 158 380 181v287h102l1 -287q147 -8 278 -68v-172q-148 80 -278 86l-1 -864q138 10 279 86v-170q-126 -59 -279 -72v-284h-102v288q-247 19 -379 180q-127 151 -127 404zM310 559q0 -168 71 -281q81 -129 240 -147v856q-159 -19 -240 -147 q-71 -113 -71 -281z" />
<glyph unicode="&#xa3;" d="M88 0v170h224v465h-189v143h189v238q0 247 92 369q104 135 332 135q122 0 276 -60v-182q-142 82 -259 82q-158 0 -212 -106q-39 -76 -39 -261v-215h371v-143h-371v-465h529v-170h-943z" />
<glyph unicode="&#xa4;" d="M66 270l175 180q-62 110 -62 208q0 109 64 206l-175 180l96 100l178 -181q88 67 199 67q102 0 203 -65l178 183l95 -100l-174 -180q62 -104 62 -210q0 -111 -67 -205l177 -181l-95 -98l-177 181q-98 -68 -202 -68q-99 0 -202 64l-177 -181zM312 659q0 -99 65 -167 q66 -68 164 -68q99 0 164 68q66 68 66 167q0 101 -66 167q-64 67 -164 67q-97 0 -163 -67q-66 -66 -66 -167z" />
<glyph unicode="&#xa5;" d="M55 1495h171l340 -700l339 700h172l-287 -587h238v-122h-298l-75 -156v-51h373v-122h-371v-457h-180v457h-374v122h374v51l-75 156h-299v122h238z" />
<glyph unicode="&#xa6;" d="M307 -350v758h170v-758h-170zM307 674v758h170v-758h-170z" />
<glyph unicode="&#xa7;" d="M119 646q0 206 211 317q-135 99 -135 253q0 159 133 247q117 77 286 77q166 0 349 -65v-185q-188 88 -322 88q-235 0 -235 -169q0 -99 236 -230q9 -6 45 -26q192 -107 258 -164q134 -117 134 -255q0 -200 -212 -319q136 -112 136 -252q0 -175 -132 -266 q-112 -82 -300 -82q-156 0 -360 65v185q197 -88 336 -88q245 0 245 180q0 113 -252 252l-29 15q-189 102 -259 164q-133 115 -133 258zM305 680q0 -114 173 -234q54 -37 272 -152q144 100 144 204q0 113 -175 234q-39 27 -271 152q-143 -102 -143 -204z" />
<glyph unicode="&#xa8;" horiz-adv-x="1118" d="M254 1304v203h203v-203h-203zM667 1304v203h203v-203h-203z" />
<glyph unicode="&#xa9;" horiz-adv-x="1902" d="M86 651q0 358 245 609q246 250 601 250q356 0 600 -250q246 -250 246 -609q0 -356 -247 -606q-247 -249 -599 -249t-600 249q-246 251 -246 606zM200 651q0 -308 214 -522q215 -215 518 -215q306 0 518 213q212 215 212 524q0 315 -211 526q-210 214 -519 214 q-306 0 -519 -216t-213 -524zM428 651q0 247 146 384q143 137 387 137q165 0 312 -64v-149q-149 75 -299 75q-176 0 -270 -103q-90 -101 -90 -280q0 -184 96 -284t275 -100q145 0 288 74v-145q-150 -66 -312 -66q-248 0 -387 136q-146 138 -146 385z" />
<glyph unicode="&#xaa;" horiz-adv-x="1040" d="M115 837q0 323 409 323h197v5q0 216 -253 216q-141 0 -288 -81v149q155 67 310 67q391 0 391 -420v-529h-160v132q-98 -155 -304 -155q-130 0 -213 74q-89 78 -89 219zM273 852q0 -82 62 -129q53 -39 133 -39q117 0 187 91q66 83 66 215v35h-138q-139 0 -198 -21 q-112 -37 -112 -152z" />
<glyph unicode="&#xab;" horiz-adv-x="1440" d="M102 610v87l495 440v-201l-318 -282l318 -283v-201zM560 610v87l495 440v-201l-318 -282l318 -283v-201z" />
<glyph unicode="&#xac;" horiz-adv-x="1676" d="M158 602v158l1166 2v-705h-171v545h-995z" />
<glyph unicode="&#xad;" horiz-adv-x="883" d="M90 561v181h564v-181h-564z" />
<glyph unicode="&#xae;" horiz-adv-x="1902" d="M87 646q-1 361 247 617q249 253 611 253q363 0 612 -253t251 -617q0 -358 -251 -612q-251 -252 -609 -252q-360 0 -611 252q-250 253 -250 612zM202 646q0 -308 219 -527q221 -218 527 -218q311 0 527 216q216 217 216 529q-1 317 -217 533q-216 217 -529 217 q-309 0 -527 -219q-218 -217 -216 -531zM592 1153h330q408 0 408 -280q0 -209 -232 -252q58 -19 158 -185l159 -259h-200l-150 244q-52 86 -85 119q-56 53 -130 53h-76v-416h-181zM773 710h142q110 0 160 26q69 34 69 135q0 100 -69 136q-47 26 -160 26h-142v-323z" />
<glyph unicode="&#xaf;" d="M-16 1671v135h1005v-135h-1005z" />
<glyph unicode="&#x2c9;" d="M-16 1671v135h1005v-135h-1005z" />
<glyph unicode="&#xb0;" horiz-adv-x="1064" d="M100 1139q0 167 111 279q111 113 279 113q164 0 277 -114q113 -116 113 -278q0 -165 -113 -275q-112 -109 -279 -109q-170 0 -280 108q-108 108 -108 276zM255 1139q0 -98 67 -164q68 -65 168 -65q98 0 166 65q67 66 67 164q0 100 -67 167t-166 67q-101 0 -168 -67 q-67 -66 -67 -167z" />
<glyph unicode="&#xb1;" horiz-adv-x="1676" d="M162 151v167h1224v-167h-1224zM162 864v167h532v380h160v-380h532v-167h-532v-379h-160v379h-532z" />
<glyph unicode="&#xb2;" horiz-adv-x="1104" d="M184 566v123l107 98q381 347 381 446q0 83 -66 127q-58 38 -143 38q-113 0 -272 -78v137q169 63 295 63q144 0 240 -60q114 -72 114 -209q0 -154 -367 -473l-96 -84h469v-128h-662z" />
<glyph unicode="&#xb3;" horiz-adv-x="1104" d="M184 597v134q107 -59 250 -59q242 0 242 166q0 167 -230 167h-91v120h99q201 0 201 136q0 133 -205 133q-85 0 -235 -46v128q157 39 269 39q130 0 219 -51q111 -63 111 -191q0 -161 -181 -203q203 -42 203 -232q0 -287 -386 -287q-116 0 -266 46z" />
<glyph unicode="&#xb4;" horiz-adv-x="1118" d="M449 1302l237 375h222l-275 -375h-184z" />
<glyph unicode="&#xb5;" horiz-adv-x="1333" d="M135 -426v1546h184v-696q0 -146 56 -219t168 -72q297 0 297 336v653h184v-862q0 -117 72 -117q12 0 69 23v-148q-79 -45 -149 -45q-136 0 -166 158q-101 -158 -293 -158q-153 -1 -238 154v-553h-184z" />
<glyph unicode="&#xb6;" d="M57 1027q0 221 138 347q130 115 332 115h445v-1852h-140v1718h-189v-1718h-139v928q-202 18 -318 125q-129 122 -129 337z" />
<glyph unicode="&#xb7;" horiz-adv-x="744" d="M249 847v254h211v-254h-211z" />
<glyph unicode="&#xb8;" horiz-adv-x="1080" d="M289 -240q67 -32 155 -32q119 0 119 94q0 60 -88 178h119q109 -121 109 -215q0 -180 -238 -180q-91 0 -176 24v131z" />
<glyph unicode="&#xb9;" horiz-adv-x="1104" d="M248 1328v131l232 44h139v-818h208v-124h-559v124h206v689z" />
<glyph unicode="&#xba;" horiz-adv-x="1104" d="M86 1030q0 219 105 348q107 135 303 135q194 0 300 -135q104 -131 104 -348q0 -219 -104 -347q-107 -134 -300 -134q-196 0 -303 134q-105 127 -105 347zM250 1030q0 -139 56 -234q66 -109 188 -109t186 108q55 91 55 235t-54 238q-65 110 -187 110q-124 0 -189 -110 q-55 -94 -55 -238z" />
<glyph unicode="&#xbb;" horiz-adv-x="1440" d="M131 161v198l316 278l-316 278v198l492 -434v-84zM586 161v198l316 278l-316 278v198l492 -434v-84z" />
<glyph unicode="&#xbc;" horiz-adv-x="2310" d="M170 1328v131l232 44h139v-818h208v-124h-559v124h206v689zM411 -39l932 1549h160l-932 -1549h-160zM1114 241v121l392 528h166v-540h135v-109h-135v-186h-144v186h-414zM1219 350h309v419z" />
<glyph unicode="&#xbd;" horiz-adv-x="2310" d="M170 1328v131l232 44h139v-818h208v-124h-559v124h206v689zM496 15l932 1549h160l-932 -1549h-160zM1328 6v123l107 98q381 347 381 446q0 83 -66 127q-58 38 -143 38q-113 0 -272 -78v137q169 63 295 63q144 0 240 -60q114 -72 114 -209q0 -154 -367 -473l-96 -84h469 v-128h-662z" />
<glyph unicode="&#xbe;" horiz-adv-x="2310" d="M139 597v134q107 -59 250 -59q242 0 242 166q0 167 -230 167h-91v120h99q201 0 201 136q0 133 -205 133q-85 0 -235 -46v128q158 39 269 39q130 0 219 -51q111 -63 111 -191q0 -161 -181 -203q203 -42 203 -232q0 -287 -386 -287q-116 0 -266 46zM482 -34l932 1549h160 l-932 -1549h-160zM1142 240v121l392 528h166v-540h135v-109h-135v-186h-144v186h-414zM1247 349h309v419z" />
<glyph unicode="&#xbf;" horiz-adv-x="1160" d="M854 272v-188q-188 -113 -390 -113q-183 0 -295 94.5t-112 258.5q0 141 162 299l88 86q73 71 89.5 114t16.5 144v123h191v-154q0 -102 -28.5 -166t-117.5 -151l-90 -89q-108 -107 -108 -196q0 -94 66 -146.5t173 -52.5q155 0 355 137zM610 1491v-254h-203v254h203z" />
<glyph unicode="&#xc0;" horiz-adv-x="1402" d="M248 2071h243l179 -374h-149zM-10 0l510 1493h229l509 -1493h-209l-135 416h-569l-135 -416h-200zM380 585h459l-225 709z" />
<glyph unicode="&#xc1;" horiz-adv-x="1402" d="M-10 0l510 1493h229l509 -1493h-209l-135 416h-569l-135 -416h-200zM380 585h459l-225 709zM637 1675l237 375h222l-275 -375h-184z" />
<glyph unicode="&#xc2;" horiz-adv-x="1402" d="M-10 0l510 1493h229l509 -1493h-209l-135 416h-569l-135 -416h-200zM380 585h459l-225 709zM259 1568l256 384h216l230 -384h-160l-182 257l-200 -257h-160z" />
<glyph unicode="&#xc3;" horiz-adv-x="1402" d="M-10 0l510 1493h229l509 -1493h-209l-135 416h-569l-135 -416h-200zM380 585h459l-225 709zM212 1619v157q121 133 236 133q67 0 160 -54q115 -67 177 -67q101 0 222 142v-159q-121 -130 -236 -130q-67 0 -159 53q-6 1 -24 12q-98 55 -154 55q-105 0 -222 -142z" />
<glyph unicode="&#xc4;" horiz-adv-x="1402" d="M-10 0l510 1493h229l509 -1493h-209l-135 416h-569l-135 -416h-200zM380 585h459l-225 709zM300 1677v203h203v-203h-203zM713 1677v203h203v-203h-203z" />
<glyph unicode="&#xc5;" horiz-adv-x="1402" d="M-10 0l461 1454q-129 87 -129 239q0 121 81 204q82 82 206 82q123 0 206 -83t83 -203q0 -151 -129 -239l467 -1454h-192l-123 399h-613l-123 -399h-195zM365 574h497l-253 773zM451 1693q0 -66 46 -112q47 -45 112 -45q67 0 113 45q47 47 47 112q0 64 -47 111t-113 47 q-68 0 -113 -46q-45 -45 -45 -112z" />
<glyph unicode="&#xc6;" horiz-adv-x="2025" d="M-39 0l619 1493h1202v-170h-706v-442h676v-170h-676v-541h724v-170h-910v383h-567l-159 -383h-203zM391 551h499v784h-172z" />
<glyph unicode="&#xc7;" horiz-adv-x="1367" d="M66 750q0 118 19.5 219.5t50 172t73 129t83 94t86.5 62.5q76 45 179 71t220 25.5t213 -34.5q38 -14 56.5 -21t54.5 -24t95 -47v-239q-76 64 -152 107.5t-138 62t-109.5 24t-85.5 1.5q-450 -56 -439 -603q0 -131 27 -234t69 -167t102 -107.5t117.5 -63t123.5 -27.5 q208 -24 485 193v-236q-155 -95 -341 -120q93 -112 93 -197q0 -180 -238 -180q-90 0 -176 24v131q67 -32 155 -32q119 0 119 94q0 53 -69 152h-28q-161 7 -285.5 67.5t-202.5 163t-117.5 238.5t-39.5 301z" />
<glyph unicode="&#xc8;" horiz-adv-x="1260" d="M326 2090h243l179 -374h-149zM152 0v1489h931v-176h-733v-408h683v-176h-683v-553h733v-176h-931z" />
<glyph unicode="&#xc9;" horiz-adv-x="1260" d="M152 0v1489h931v-176h-733v-408h683v-176h-683v-553h733v-176h-931zM475 1617l237 375h222l-275 -375h-184z" />
<glyph unicode="&#xca;" horiz-adv-x="1260" d="M152 0v1489h931v-176h-733v-408h683v-176h-683v-553h733v-176h-931zM288 1620l256 384h216l230 -384h-160l-182 257l-200 -257h-160z" />
<glyph unicode="&#xcb;" horiz-adv-x="1260" d="M152 0v1489h931v-176h-733v-408h683v-176h-683v-553h733v-176h-931zM315 1677v203h203v-203h-203zM728 1677v203h203v-203h-203z" />
<glyph unicode="&#xcc;" horiz-adv-x="990" d="M72 2009h243l179 -374h-149zM92 0v152h188v1185h-188v152h578v-152h-192v-1185h192v-152h-578z" />
<glyph unicode="&#xcd;" horiz-adv-x="990" d="M92 0v152h188v1185h-188v152h578v-152h-192v-1185h192v-152h-578zM227 1597l237 375h222l-275 -375h-184z" />
<glyph unicode="&#xce;" horiz-adv-x="990" d="M126 0v152h188v1185h-188v152h578v-152h-192v-1185h192v-152h-578zM43 1670l256 384h216l230 -384h-160l-182 257l-200 -257h-160z" />
<glyph unicode="&#xcf;" horiz-adv-x="990" d="M92 0v152h188v1185h-188v152h578v-152h-192v-1185h192v-152h-578zM76 1677v203h203v-203h-203zM489 1677v203h203v-203h-203z" />
<glyph unicode="&#xd0;" horiz-adv-x="1585" d="M25 740v144l163 -1l-6 610h416q360 0 535 -163q234 -186 234 -587q0 -402 -233 -579q-176 -164 -536 -164h-416l6 739zM385 166h239q266 0 429 133q128 143 128 444q0 303 -128 443q-163 141 -429 141h-239l6 -444h320v-144h-320z" />
<glyph unicode="&#xd1;" horiz-adv-x="1578" d="M286 1653v157q121 133 236 133q67 0 160 -54q115 -67 177 -67q101 0 222 142v-159q-121 -130 -236 -130q-67 0 -159 53q-6 1 -24 12q-98 55 -154 55q-105 0 -222 -142zM152 0v1489h281l599 -1179v1179h185v-1489h-222l-658 1284v-1284h-185z" />
<glyph unicode="&#xd2;" horiz-adv-x="1577" d="M344 2067h243l179 -374h-149zM66 724q0 81 7 154.5t26 153.5t49.5 146.5t80 128.5t114.5 105.5t156 71t202 31.5q15 1 29 1q91 0 176 -22q100 -25 180 -77t133 -121t90 -152.5t53 -172.5t20 -180q1 -22 1 -44q0 -68 -8 -133q-11 -86 -32 -162t-51 -136 q-52 -106 -130.5 -181t-165.5 -111q-88 -36 -182 -49q-47 -6 -92.5 -6.5t-89.5 6.5q-88 13 -165 42t-133 72q-268 206 -268 635zM270 727q2 -95 16 -176t48 -159.5t86 -132.5q52 -55 134 -87q76 -30 170 -30q9 0 18 1q92 2 171 39q86 41 145 118t84.5 168t32.5 193 q2 36 2 70q0 64 -8 126q-13 94 -37 172.5t-54 127.5q-62 97 -151.5 141t-211.5 47h-9q-55 0 -107 -12q-56 -13 -120 -54t-109.5 -106t-74.5 -180q-25 -101 -25 -230v-36z" />
<glyph unicode="&#xd3;" horiz-adv-x="1577" d="M66 724q0 81 7 154.5t26 153.5t49.5 146.5t80 128.5t114.5 105.5t156 71t202 31.5q15 1 29 1q91 0 176 -22q100 -25 180 -77t133 -121t90 -152.5t53 -172.5t20 -180q1 -22 1 -44q0 -68 -8 -133q-11 -86 -32 -162t-51 -136q-52 -106 -130.5 -181t-165.5 -111 q-88 -36 -182 -49q-47 -6 -92.5 -6.5t-89.5 6.5q-88 13 -165 42t-133 72q-268 206 -268 635zM270 727q2 -95 16 -176t48 -159.5t86 -132.5q52 -55 134 -87q76 -30 170 -30q9 0 18 1q92 2 171 39q86 41 145 118t84.5 168t32.5 193q2 36 2 70q0 64 -8 126q-13 94 -37 172.5 t-54 127.5q-62 97 -151.5 141t-211.5 47h-9q-55 0 -107 -12q-56 -13 -120 -54t-109.5 -106t-74.5 -180q-25 -101 -25 -230v-36zM564 1661l237 375h222l-275 -375h-184z" />
<glyph unicode="&#xd4;" horiz-adv-x="1577" d="M66 724q0 81 7 154.5t26 153.5t49.5 146.5t80 128.5t114.5 105.5t156 71t202 31.5q15 1 29 1q91 0 176 -22q100 -25 180 -77t133 -121t90 -152.5t53 -172.5t20 -180q1 -22 1 -44q0 -68 -8 -133q-11 -86 -32 -162t-51 -136q-52 -106 -130.5 -181t-165.5 -111 q-88 -36 -182 -49q-47 -6 -92.5 -6.5t-89.5 6.5q-88 13 -165 42t-133 72q-268 206 -268 635zM270 727q2 -95 16 -176t48 -159.5t86 -132.5q52 -55 134 -87q76 -30 170 -30q9 0 18 1q92 2 171 39q86 41 145 118t84.5 168t32.5 193q2 36 2 70q0 64 -8 126q-13 94 -37 172.5 t-54 127.5q-62 97 -151.5 141t-211.5 47h-9q-55 0 -107 -12q-56 -13 -120 -54t-109.5 -106t-74.5 -180q-25 -101 -25 -230v-36zM361 1694l256 384h216l230 -384h-160l-182 257l-200 -257h-160z" />
<glyph unicode="&#xd5;" horiz-adv-x="1577" d="M66 724q0 81 7 154.5t26 153.5t49.5 146.5t80 128.5t114.5 105.5t156 71t202 31.5q15 1 29 1q91 0 176 -22q100 -25 180 -77t133 -121t90 -152.5t53 -172.5t20 -180q1 -22 1 -44q0 -68 -8 -133q-11 -86 -32 -162t-51 -136q-52 -106 -130.5 -181t-165.5 -111 q-88 -36 -182 -49q-47 -6 -92.5 -6.5t-89.5 6.5q-88 13 -165 42t-133 72q-268 206 -268 635zM270 727q2 -95 16 -176t48 -159.5t86 -132.5q52 -55 134 -87q76 -30 170 -30q9 0 18 1q92 2 171 39q86 41 145 118t84.5 168t32.5 193q2 36 2 70q0 64 -8 126q-13 94 -37 172.5 t-54 127.5q-62 97 -151.5 141t-211.5 47h-9q-55 0 -107 -12q-56 -13 -120 -54t-109.5 -106t-74.5 -180q-25 -101 -25 -230v-36zM294 1729v157q121 133 236 133q67 0 160 -54q115 -67 177 -67q101 0 222 142v-159q-121 -130 -236 -130q-67 0 -159 53q-6 1 -24 12 q-98 55 -154 55q-105 0 -222 -142z" />
<glyph unicode="&#xd6;" horiz-adv-x="1577" d="M407 1682v203h203v-203h-203zM820 1682v203h203v-203h-203zM66 724q0 81 7 154.5t26 153.5t49.5 146.5t80 128.5t114.5 105.5t156 71t202 31.5q15 1 29 1q91 0 176 -22q100 -25 180 -77t133 -121t90 -152.5t53 -172.5t20 -180q1 -22 1 -44q0 -68 -8 -133 q-11 -86 -32 -162t-51 -136q-52 -106 -130.5 -181t-165.5 -111q-88 -36 -182 -49q-47 -6 -92.5 -6.5t-89.5 6.5q-88 13 -165 42t-133 72q-268 206 -268 635zM270 727q2 -95 16 -176t48 -159.5t86 -132.5q52 -55 134 -87q76 -30 170 -30q9 0 18 1q92 2 171 39q86 41 145 118 t84.5 168t32.5 193q2 36 2 70q0 64 -8 126q-13 94 -37 172.5t-54 127.5q-62 97 -151.5 141t-211.5 47h-9q-55 0 -107 -12q-56 -13 -120 -54t-109.5 -106t-74.5 -180q-25 -101 -25 -230v-36z" />
<glyph unicode="&#xd7;" horiz-adv-x="1676" d="M209 226l430 426l-430 427l111 113l433 -428l431 428l112 -113l-431 -427l431 -426l-112 -113l-431 428l-433 -428z" />
<glyph unicode="&#xd8;" horiz-adv-x="1577" d="M66 13l160 202q-148 205 -148 527q0 344 163 552q174 226 488 226q247 0 413 -153l152 192l96 -89l-160 -199q149 -212 149 -529q0 -340 -162 -549q-176 -227 -488 -227q-242 0 -414 151l-152 -192zM279 742q0 -233 73 -369l676 851q-119 131 -299 131q-228 0 -348 -192 q-102 -165 -102 -421zM430 262q120 -131 299 -131q229 0 348 191q101 164 101 420q0 227 -73 369z" />
<glyph unicode="&#xd9;" horiz-adv-x="1513" d="M445 2029h243l179 -374h-149zM166 561v928h198l-7 -894q9 -241 52 -333q87 -127 296 -127t296 127q40 110 41 322l3 905h198v-929q2 -32 2 -63q0 -526 -540 -526q-541 0 -541 527q0 31 2 63z" />
<glyph unicode="&#xda;" horiz-adv-x="1513" d="M166 561v928h198l-7 -894q9 -241 52 -333q87 -127 296 -127t296 127q40 110 41 322l3 905h198v-929q2 -32 2 -63q0 -526 -540 -526q-541 0 -541 527q0 31 2 63zM526 1675l237 375h222l-275 -375h-184z" />
<glyph unicode="&#xdb;" horiz-adv-x="1513" d="M166 561v928h198l-7 -894q9 -241 52 -333q87 -127 296 -127t296 127q40 110 41 322l3 905h198v-929q2 -32 2 -63q0 -526 -540 -526q-541 0 -541 527q0 31 2 63zM362 1664l256 384h216l230 -384h-160l-182 257l-200 -257h-160z" />
<glyph unicode="&#xdc;" horiz-adv-x="1513" d="M166 561v928h198l-7 -894q9 -241 52 -333q87 -127 296 -127t296 127q40 110 41 322l3 905h198v-929q2 -32 2 -63q0 -526 -540 -526q-541 0 -541 527q0 31 2 63zM375 1672v203h203v-203h-203zM788 1672v203h203v-203h-203z" />
<glyph unicode="&#xdd;" horiz-adv-x="1373" d="M-10 1489h220l384 -657l390 657h210l-503 -830l2 -659h-203l3 638zM442 1675l237 375h222l-275 -375h-184z" />
<glyph unicode="&#xde;" horiz-adv-x="1350" d="M152 -4v1493h194v-264h245q489 0 489 -445q0 -446 -489 -446h-245v-338h-194zM346 500h245q134 0 209 72t75 208q0 279 -284 279h-245v-559z" />
<glyph unicode="&#xdf;" horiz-adv-x="1322" d="M135 0v1134q0 206 117 316q110 102 302 102q389 0 395 -455q-292 -16 -292 -218q0 -91 112 -170l53 -36q123 -89 168 -141q72 -86 72 -207q0 -354 -400 -354q-117 0 -251 49v164q144 -60 262 -60q216 0 216 187q0 73 -42 125q-28 32 -105 82l-84 55q-168 109 -168 285 q0 134 86 223q77 77 206 104q-17 215 -231 215q-244 0 -244 -270v-1130h-172z" />
<glyph unicode="&#xe0;" horiz-adv-x="1226" d="M416 1638h243l179 -374h-149zM57 324q0 381 513 396l189 15v-10q17 48 17 88q0 71 -54 116q-76 64 -213 64q-179 0 -337 -92v170q188 78 355 78q419 -2 419 -510v-639h-187l7 151q-120 -178 -317 -178h-4h-16q-190 0 -279 92q-93 96 -93 259zM228 336q0 -100 81 -155 q81 -54 182 -54h2q108 0 192 123q74 110 74 272v41h-171h-16q-111 0 -180 -27q-164 -53 -164 -200z" />
<glyph unicode="&#xe1;" horiz-adv-x="1226" d="M347 1262l237 375h222l-275 -375h-184zM57 324q0 381 513 396l189 15v-10q17 48 17 88q0 71 -54 116q-76 64 -213 64q-179 0 -337 -92v170q188 78 355 78q419 -2 419 -510v-639h-187l7 151q-120 -178 -317 -178h-4h-16q-190 0 -279 92q-93 96 -93 259zM228 336 q0 -100 81 -155q81 -54 182 -54h2q108 0 192 123q74 110 74 272v41h-171h-16q-111 0 -180 -27q-164 -53 -164 -200z" />
<glyph unicode="&#xe2;" horiz-adv-x="1226" d="M57 324q0 381 513 396l189 15v-10q17 48 17 88q0 71 -54 116q-76 64 -213 64q-179 0 -337 -92v170q188 78 355 78q419 -2 419 -510v-639h-187l7 151q-120 -178 -317 -178h-4h-16q-190 0 -279 92q-93 96 -93 259zM228 336q0 -100 81 -155q81 -54 182 -54h2q108 0 192 123 q74 110 74 272v41h-171h-16q-111 0 -180 -27q-164 -53 -164 -200zM209 1268l256 384h216l230 -384h-160l-182 257l-200 -257h-160z" />
<glyph unicode="&#xe3;" horiz-adv-x="1226" d="M57 324q0 381 513 396l189 15v-10q17 48 17 88q0 71 -54 116q-76 64 -213 64q-179 0 -337 -92v170q188 78 355 78q419 -2 419 -510v-639h-187l7 151q-120 -178 -317 -178h-4h-16q-190 0 -279 92q-93 96 -93 259zM228 336q0 -100 81 -155q81 -54 182 -54h2q108 0 192 123 q74 110 74 272v41h-171h-16q-111 0 -180 -27q-164 -53 -164 -200zM157 1325v157q121 133 236 133q67 0 160 -54q115 -67 177 -67q101 0 222 142v-159q-121 -130 -236 -130q-67 0 -159 53q-6 1 -24 12q-98 55 -154 55q-105 0 -222 -142z" />
<glyph unicode="&#xe4;" horiz-adv-x="1226" d="M201 1351v203h203v-203h-203zM614 1351v203h203v-203h-203zM57 324q0 381 513 396l189 15v-10q17 48 17 88q0 71 -54 116q-76 64 -213 64q-179 0 -337 -92v170q188 78 355 78q419 -2 419 -510v-639h-187l7 151q-120 -178 -317 -178h-4h-16q-190 0 -279 92q-93 96 -93 259 zM228 336q0 -100 81 -155q81 -54 182 -54h2q108 0 192 123q74 110 74 272v41h-171h-16q-111 0 -180 -27q-164 -53 -164 -200z" />
<glyph unicode="&#xe5;" horiz-adv-x="1226" d="M57 324q0 381 513 396l189 15v-10q17 48 17 88q0 71 -54 116q-76 64 -213 64q-179 0 -337 -92v170q188 78 355 78q419 -2 419 -510v-639h-187l7 151q-120 -178 -317 -178h-4h-16q-190 0 -279 92q-93 96 -93 259zM228 336q0 -100 81 -155q81 -54 182 -54h2q108 0 192 123 q74 110 74 272v41h-171h-16q-111 0 -180 -27q-164 -53 -164 -200zM221 1422q0 118 78 196t196 78t196 -78t78 -196q0 -117 -78 -197q-78 -78 -196 -78t-196 78q-78 80 -78 197zM343 1422q0 -66 43 -109t109 -43q64 0 108 44t44 108q0 63 -44 107t-108 44q-66 0 -109 -43 t-43 -108z" />
<glyph unicode="&#xe6;" horiz-adv-x="1919" d="M57 326q0 381 504 381h258v18q0 136 -94 205q-83 61 -224 61q-192 0 -362 -92v170q203 78 381 78q296 0 368 -177q125 188 392 188q238 0 368 -154q122 -146 122 -387v-90h-846q25 -391 399 -391q205 0 404 106v-174q-208 -86 -414 -86q-337 0 -425 229 q-146 -240 -432 -240q-178 0 -285 86q-114 93 -114 269zM241 338q0 -103 70 -160q65 -53 170 -53q163 0 255 120q83 110 83 277v41h-183q-179 0 -261 -29q-134 -50 -134 -196zM930 670l655 1q-1 146 -78 236q-82 95 -225 95q-154 0 -246 -87.5t-106 -244.5z" />
<glyph unicode="&#xe7;" horiz-adv-x="1080" d="M82 583q0 270 158 419q131 119 383 137q160 -17 309 -86v-157q-158 86 -315 86q-190 0 -252 -92q-89 -113 -89 -307q-22 -215 66 -327q68 -122 257 -122q161 0 306 121l9 -205q-76 -37 -165 -55q105 -120 105 -210q0 -180 -238 -180q-90 0 -176 24v131q67 -32 155 -32 q119 0 119 94q0 55 -73 158q-42 -2 -62 -2q-262 0 -379 163q-141 157 -118 442z" />
<glyph unicode="&#xe8;" horiz-adv-x="1216" d="M259 1642h243l179 -374h-149zM59 572q0 119 28 211t96 181q138 178 394 178q229 0 352 -162q61 -80 86 -161t25 -189v-91h-800q12 -192 106.5 -300t274.5 -108q197 0 381 105v-175q-192 -87 -391 -87q-262 0 -407 159.5t-145 438.5zM246 683h620q0 100 -46 183t-113 104 q-51 15 -129 15q-142 0 -232.5 -91t-99.5 -211z" />
<glyph unicode="&#xe9;" horiz-adv-x="1216" d="M454 1262l237 375h222l-275 -375h-184zM59 572q0 119 28 211t96 181q138 178 394 178q229 0 352 -162q61 -80 86 -161t25 -189v-91h-800q12 -192 106.5 -300t274.5 -108q197 0 381 105v-175q-192 -87 -391 -87q-262 0 -407 159.5t-145 438.5zM246 683h620q0 100 -46 183 t-113 104q-51 15 -129 15q-142 0 -232.5 -91t-99.5 -211z" />
<glyph unicode="&#xea;" horiz-adv-x="1216" d="M212 1260l256 384h216l230 -384h-160l-182 257l-200 -257h-160zM59 572q0 119 28 211t96 181q138 178 394 178q229 0 352 -162q61 -80 86 -161t25 -189v-91h-800q12 -192 106.5 -300t274.5 -108q197 0 381 105v-175q-192 -87 -391 -87q-262 0 -407 159.5t-145 438.5z M246 683h620q0 100 -46 183t-113 104q-51 15 -129 15q-142 0 -232.5 -91t-99.5 -211z" />
<glyph unicode="&#xeb;" horiz-adv-x="1216" d="M247 1360v203h203v-203h-203zM660 1360v203h203v-203h-203zM59 572q0 119 28 211t96 181q138 178 394 178q229 0 352 -162q61 -80 86 -161t25 -189v-91h-800q12 -192 106.5 -300t274.5 -108q197 0 381 105v-175q-192 -87 -391 -87q-262 0 -407 159.5t-145 438.5zM246 683 h620q0 100 -46 183t-113 104q-51 15 -129 15q-142 0 -232.5 -91t-99.5 -211z" />
<glyph unicode="&#xec;" horiz-adv-x="618" d="M-132 1642h242l180 -374h-150zM127 0v1120h184v-1120h-184z" />
<glyph unicode="&#xed;" horiz-adv-x="618" d="M123 1256l237 375h222l-275 -375h-184zM127 0v1120h184v-1120h-184z" />
<glyph unicode="&#xee;" horiz-adv-x="618" d="M-85 1297l256 384h216l230 -384h-160l-182 257l-200 -257h-160zM183 5v1120h184v-1120h-184z" />
<glyph unicode="&#xef;" horiz-adv-x="618" d="M-52 1304v203h203v-203h-203zM165 0v1120h184v-1120h-184zM361 1304v203h203v-203h-203z" />
<glyph unicode="&#xf0;" horiz-adv-x="1269" d="M57 537q0 241 126 395q135 166 371 166q32 0 112 -10l-159 180l-319 -107l-33 99l281 92l-181 204h228l127 -145l333 111l33 -97l-295 -98l164 -186q240 -271 240 -604q0 -247 -132 -402q-140 -164 -382 -164q-243 0 -382 165q-132 154 -132 401zM251 537q0 -171 72 -281 q85 -129 248 -129q161 0 246 130q73 109 73 280q0 241 -108 378q-98 33 -179 33q-179 0 -270 -120q-82 -106 -82 -291z" />
<glyph unicode="&#xf1;" horiz-adv-x="1311" d="M135 0v1120h188v-174q131 201 325 201q363 0 363 -406q0 -31 -2 -65v-676h-184v670q3 34 3 65q0 252 -221 252q-156 0 -204 -101q-80 -95 -80 -253v-633h-188zM191 1320v157q121 133 236 133q67 0 160 -54q115 -67 177 -67q101 0 222 142v-159q-121 -130 -236 -130 q-67 0 -159 53q-6 1 -24 12q-98 55 -154 55q-105 0 -222 -142z" />
<glyph unicode="&#xf2;" horiz-adv-x="1264" d="M57 559q0 263 124 417q135 171 390 171q224 -1 360 -172q124 -154 124 -417t-124 -417q-134 -170 -357 -170h-3q-255 0 -390 171q-124 154 -124 417zM251 559q0 -179 69 -293q82 -139 251 -139h2q132 0 217 139q70 115 70 292t-70 292q-84 140 -219 141q-166 0 -250 -139 q-70 -115 -70 -293zM230 1638h243l179 -374h-149z" />
<glyph unicode="&#xf3;" horiz-adv-x="1264" d="M57 559q0 263 124 417q135 171 390 171q224 -1 360 -172q124 -154 124 -417t-124 -417q-134 -170 -357 -170h-3q-255 0 -390 171q-124 154 -124 417zM251 559q0 -179 69 -293q82 -139 251 -139h2q132 0 217 139q70 115 70 292t-70 292q-84 140 -219 141q-166 0 -250 -139 q-70 -115 -70 -293zM434 1262l237 375h222l-275 -375h-184z" />
<glyph unicode="&#xf4;" horiz-adv-x="1264" d="M206 1258l256 384h216l230 -384h-160l-182 257l-200 -257h-160zM57 559q0 263 124 417q135 171 390 171q224 -1 360 -172q124 -154 124 -417t-124 -417q-134 -170 -357 -170h-3q-255 0 -390 171q-124 154 -124 417zM251 559q0 -179 69 -293q82 -139 251 -139h2 q132 0 217 139q70 115 70 292t-70 292q-84 140 -219 141q-166 0 -250 -139q-70 -115 -70 -293z" />
<glyph unicode="&#xf5;" horiz-adv-x="1264" d="M57 559q0 263 124 417q135 171 390 171q224 -1 360 -172q124 -154 124 -417t-124 -417q-134 -170 -357 -170h-3q-255 0 -390 171q-124 154 -124 417zM251 559q0 -179 69 -293q82 -139 251 -139h2q132 0 217 139q70 115 70 292t-70 292q-84 140 -219 141q-166 0 -250 -139 q-70 -115 -70 -293zM184 1320v157q121 133 236 133q67 0 160 -54q115 -67 177 -67q101 0 222 142v-159q-121 -130 -236 -130q-67 0 -159 53q-6 1 -24 12q-98 55 -154 55q-105 0 -222 -142z" />
<glyph unicode="&#xf6;" horiz-adv-x="1264" d="M57 559q0 263 124 417q135 171 390 171q224 -1 360 -172q124 -154 124 -417t-124 -417q-134 -170 -357 -170h-3q-255 0 -390 171q-124 154 -124 417zM251 559q0 -179 69 -293q82 -139 251 -139h2q132 0 217 139q70 115 70 292t-70 292q-84 140 -219 141q-166 0 -250 -139 q-70 -115 -70 -293zM248 1355v203h203v-203h-203zM661 1355v203h203v-203h-203z" />
<glyph unicode="&#xf7;" horiz-adv-x="1676" d="M158 572v160h1175v-160h-1175zM617 25v245h246v-245h-246zM617 1039v246h246v-246h-246z" />
<glyph unicode="&#xf8;" horiz-adv-x="1264" d="M41 -17l149 182q-108 155 -108 393q0 262 124 417q135 171 390 171q151 0 284 -103l139 168l95 -79l-146 -179q107 -155 107 -395q0 -262 -124 -417q-135 -171 -355 -171q-193 0 -320 103l-139 -168zM276 544q0 -138 39 -228l453 592q-77 95 -172 82q-172 0 -254 -145 q-66 -115 -66 -301zM387 208q79 -82 209 -82t214 140q70 115 70 292q0 151 -41 242z" />
<glyph unicode="&#xf9;" horiz-adv-x="1311" d="M254 1638h243l179 -374h-149zM127 431v686h184v-679q1 -160 55 -236q51 -72 150 -71h13q121 0 207 101q81 94 81 253v635h184v-1120h-184v172q-132 -201 -327 -201h-15q-171 0 -257 110q-90 115 -91 350z" />
<glyph unicode="&#xfa;" horiz-adv-x="1311" d="M452 1262l237 375h222l-275 -375h-184zM127 431v686h184v-679q1 -160 55 -236q51 -72 150 -71h13q121 0 207 101q81 94 81 253v635h184v-1120h-184v172q-132 -201 -327 -201h-15q-171 0 -257 110q-90 115 -91 350z" />
<glyph unicode="&#xfb;" horiz-adv-x="1311" d="M214 1262l256 384h216l230 -384h-160l-182 257l-200 -257h-160zM127 431v686h184v-679q1 -160 55 -236q51 -72 150 -71h13q121 0 207 101q81 94 81 253v635h184v-1120h-184v172q-132 -201 -327 -201h-15q-171 0 -257 110q-90 115 -91 350z" />
<glyph unicode="&#xfc;" horiz-adv-x="1311" d="M258 1350v203h203v-203h-203zM671 1350v203h203v-203h-203zM127 431v686h184v-679q1 -160 55 -236q51 -72 150 -71h13q121 0 207 101q81 94 81 253v635h184v-1120h-184v172q-132 -201 -327 -201h-15q-171 0 -257 110q-90 115 -91 350z" />
<glyph unicode="&#xfd;" horiz-adv-x="1179" d="M433 1262l237 375h222l-275 -375h-184zM6 1117h195l308 -879l309 879h195l-440 -1219q-37 -174 -90 -234q-83 -93 -229 -93h-147v154h108q91 0 140 61q28 35 71 145l16 69z" />
<glyph unicode="&#xfe;" horiz-adv-x="1289" d="M135 -426v1982h185v-606q49 196 294 196q226 0 351 -188q108 -164 108 -400t-108 -400q-125 -188 -351 -188q-244 0 -294 162v-558h-185zM320 559q0 -176 41 -296q43 -139 208 -139t247 142q66 114 66 292t-66 292q-82 142 -247 142q-144 -27 -203 -144 q-46 -110 -46 -289z" />
<glyph unicode="&#xff;" horiz-adv-x="1179" d="M203 1350v203h203v-203h-203zM616 1350v203h203v-203h-203zM6 1117h195l308 -879l309 879h195l-440 -1219q-37 -174 -90 -234q-83 -93 -229 -93h-147v154h108q91 0 140 61q28 35 71 145l16 69z" />
<glyph unicode="&#x152;" horiz-adv-x="2123" d="M66 743q0 394 247 583q231 177 582 177h1021v-171h-723v-445h693v-171h-693v-545h741v-171h-1039q-378 0 -583 158q-246 190 -246 585zM274 743q0 -290 148.5 -431t447.5 -141h126v1161h-126q-297 0 -446.5 -149t-149.5 -440z" />
<glyph unicode="&#x153;" horiz-adv-x="2018" d="M57 570q0 262 118 417q129 171 372 171q271 0 397 -219q153 219 433 219q227 0 351 -153q116 -146 116 -389v-88h-807q0 -192 100 -291t281 -99q196 0 386 104v-174q-198 -86 -396 -86q-305 0 -461 219q-133 -219 -400 -219q-243 0 -372 171q-118 155 -118 417zM243 570 q0 -178 65 -293q79 -139 239 -139q157 0 237 140q67 116 67 292t-67 292q-80 140 -237 140t-238 -139q-66 -115 -66 -293zM1043 670l624 1q0 143 -74 236q-78 95 -214 95q-150 0 -243 -89t-93 -243z" />
<glyph unicode="&#x178;" horiz-adv-x="1373" d="M-10 1489h220l384 -657l390 657h210l-503 -830l2 -659h-203l3 638zM369 1677v203h203v-203h-203zM782 1677v203h203v-203h-203z" />
<glyph unicode="&#x192;" d="M-49 -3q94 -58 178 -58q103 0 157 87q37 57 61 177l125 595h-226v124h254l57 287q66 328 350 328q98 0 181 -31v-143q-68 50 -147 50q-169 0 -214 -221l-54 -270h261v-124h-289l-115 -552q-45 -212 -108 -301q-93 -130 -285 -130q-103 0 -186 37v145z" />
<glyph unicode="&#x2c6;" horiz-adv-x="1118" d="M217 1296l256 384h216l230 -384h-160l-182 257l-200 -257h-160z" />
<glyph unicode="&#x2d8;" horiz-adv-x="1118" d="M229 1608h118q23 -150 195 -150q170 0 195 150h118q-20 -287 -313 -287t-313 287z" />
<glyph unicode="&#x2da;" horiz-adv-x="1118" d="M254 1427q0 118 78 196t196 78t196 -78t78 -196q0 -117 -78 -197q-78 -78 -196 -78t-196 78q-78 80 -78 197zM376 1427q0 -66 43 -109t109 -43q64 0 108 44t44 108q0 63 -44 107t-108 44q-66 0 -109 -43t-43 -108z" />
<glyph unicode="&#x2dc;" horiz-adv-x="1118" d="M162 1320v157q121 133 236 133q67 0 160 -54q115 -67 177 -67q101 0 222 142v-159q-121 -130 -236 -130q-67 0 -159 53q-6 1 -24 12q-98 55 -154 55q-105 0 -222 -142z" />
<glyph unicode="&#x2dd;" horiz-adv-x="1118" d="M250 1302h137l223 376h-170zM656 1302h135l248 376h-178z" />
<glyph unicode="&#x3c0;" horiz-adv-x="1324" d="M135 780q28 162 100 226q74 65 236 65h889l-35 -158h-182l-105 -487q-30 -140 -30 -188q0 -107 102 -107q30 0 100 10l-30 -141q-58 -16 -111 -16q-239 0 -239 202q0 95 55 351l80 376h-326l-194 -913h-181l195 913h-41q-107 0 -123 -133h-160z" />
<glyph unicode="&#x400;" horiz-adv-x="1260" d="M326 2090h243l179 -374h-149zM152 0v1489h931v-176h-733v-408h683v-176h-683v-553h733v-176h-931z" />
<glyph unicode="&#x401;" horiz-adv-x="1260" d="M152 0v1489h931v-176h-733v-408h683v-176h-683v-553h733v-176h-931zM315 1677v203h203v-203h-203zM728 1677v203h203v-203h-203z" />
<glyph unicode="&#x403;" horiz-adv-x="1158" d="M500 1637l237 375h222l-275 -375h-184zM151 0v1493h439h443v-165l-684 -1v-1327h-198z" />
<glyph unicode="&#x405;" horiz-adv-x="1297" d="M78 101v208q222 -162 447 -162q361 0 361 262q0 210 -289 265l-123 24q-204 40 -259 115q-126 101 -126 289q0 216 160 328q95 88 321 102q212 0 469 -88v-197q-260 120 -400 122q-344 0 -344 -246q0 -115 90 -169q53 -33 195 -62l76 -26q211 -43 314 -134 q127 -109 127 -308q0 -441 -572 -441q-215 0 -447 118z" />
<glyph unicode="&#x406;" horiz-adv-x="990" d="M92 0v152h188v1185h-188v152h578v-152h-192v-1185h192v-152h-578z" />
<glyph unicode="&#x407;" horiz-adv-x="990" d="M92 0v152h188v1185h-188v152h578v-152h-192v-1185h192v-152h-578zM76 1677v203h203v-203h-203zM489 1677v203h203v-203h-203z" />
<glyph unicode="&#x408;" horiz-adv-x="1025" d="M8 -240h63q151 0 205 102q39 73 72 250l-5 1377h203v-1372q-5 -273 -117 -385q-105 -144 -344 -144h-77v172z" />
<glyph unicode="&#x40c;" horiz-adv-x="1426" d="M585 1637l237 375h222l-275 -375h-184zM152 0v1489h198v-665l610 665h241l-615 -665l651 -824h-257l-630 775v-775h-198z" />
<glyph unicode="&#x40d;" horiz-adv-x="1588" d="M336 2011h243l179 -374h-149zM151 0h222l658 1284v-1284h185v1489h-281l-599 -1179v1179h-185v-1489z" />
<glyph unicode="&#x40e;" horiz-adv-x="1370" d="M11 1545h211l378 -876l378 876h211l-532 -1224q-71 -166 -131 -229q-89 -93 -247 -93h-159v154h117q98 0 151 61q29 33 77 145l35 84zM298 2015h139l180 -246l180 246h139l-245 -377h-148z" />
<glyph unicode="&#x410;" horiz-adv-x="1402" d="M-10 0l510 1493h229l509 -1493h-209l-135 416h-569l-135 -416h-200zM380 585h459l-225 709z" />
<glyph unicode="&#x411;" horiz-adv-x="1405" d="M152 0v1493h439h489v-165l-730 -1v-450h226q154 0 256.5 -18.5t157.5 -66.5q171 -147 171 -374q-6 -52 -20.5 -98.5t-40.5 -95.5t-68 -88t-99 -70.5t-139.5 -48.5t-182.5 -17h-459zM350 169q171 -9 290 6t185.5 54.5t96.5 92t34 127.5q2 40 -4 73.5t-16 57t-27 43t-32 31 t-37 21.5t-35 14.5t-33 10.5q-112 31 -420 19z" />
<glyph unicode="&#x412;" horiz-adv-x="1405" d="M152 0v1493h439q210 0 347 -64q154 -77 154 -268q0 -14 -1 -28q-42 -276 -271 -328q79 0 140 -23t98 -59.5t61 -88.5t33 -104.5t8 -111.5q-6 -52 -20 -98.5t-40 -95.5t-68 -88t-99 -70.5t-139.5 -48.5t-182.5 -17h-459zM350 169q64 -3 121 -3q95 0 169 9 q119 15 185.5 54.5t96.5 92t34 127.5v20q0 29 -4 53q-6 34 -16 57.5t-27 43t-32 31t-37 21.5t-35 14.5t-33 10.5q-81 22 -263 22q-71 0 -157 -3v-58q0 -75 -1 -217t-1 -217v-58zM350 877h226q149 0 229.5 62.5t80.5 184.5q0 100 -80.5 151.5t-229.5 51.5h-226v-450z" />
<glyph unicode="&#x413;" horiz-adv-x="1158" d="M151 0v1493h439h443v-165l-684 -1v-1327h-198z" />
<glyph unicode="&#x414;" horiz-adv-x="1571" d="M15 190l1 -448h203v258h947v-274h191l-1 460h-107l-2 1303l-875 -1q-10 -302 -44 -583t-55 -356q-23 -81 -46 -147.5t-40.5 -104t-31.5 -63.5t-21 -35l-7 -9h-112zM325 188q20 47 41 90q19 40 58 169q4 10 5 15q18 57 40.5 195.5t36 243.5t13.5 110l27 302h503l-1 -1126z " />
<glyph unicode="&#x415;" horiz-adv-x="1260" d="M152 0v1489h931v-176h-733v-408h683v-176h-683v-553h733v-176h-931z" />
<glyph unicode="&#x416;" horiz-adv-x="2138" d="M0 0h250l569 775v-775h192v775l569 -775h250l-590 824l555 665h-234l-550 -665v665h-192v-665l-550 665h-234l555 -665z" />
<glyph unicode="&#x417;" horiz-adv-x="1302" d="M34 45v195q187 -99 349 -91q428 0 428 293q0 137 -104 209t-281 72h-192v166h200q116 0 199 22t132 71.5t49 124.5q0 117 -106 184t-282 67q-182 0 -342 -82v180q166 72 361 72q119 0 225 -27t188 -76.5t129.5 -126.5t47.5 -170q0 -129 -72 -205t-223 -111 q149 -30 221 -122t72 -248q0 -77 -20 -142t-55 -112t-84.5 -83.5t-105 -60t-121 -38.5t-128 -21t-130.5 -6q-205 0 -355 66z" />
<glyph unicode="&#x418;" horiz-adv-x="1588" d="M151 0h222l658 1284v-1284h185v1489h-281l-599 -1179v1179h-185v-1489z" />
<glyph unicode="&#x419;" horiz-adv-x="1588" d="M151 0h222l658 1284v-1284h185v1489h-281l-599 -1179v1179h-185v-1489zM313 1917h118q23 -150 195 -150q170 0 195 150h118q-20 -287 -313 -287t-313 287z" />
<glyph unicode="&#x41a;" horiz-adv-x="1426" d="M152 0v1489h198v-665l610 665h241l-615 -665l651 -824h-257l-630 775v-775h-198z" />
<glyph unicode="&#x41b;" horiz-adv-x="1590" d="M15 0v207q53 2 87 6q8 2 17 0.5t23.5 1.5t29 8.5t34 22t39.5 41.5q35 44 57.5 145t29 188.5t11 198.5t5.5 126q10 107 16 243t7 218l1 82l875 1v-1489h-198v1313h-503l-35 -575q-24 -291 -56 -423q-35 -143 -147 -238q-11 -10 -26 -18.5t-31 -15.5t-33 -13t-33 -10 t-31.5 -7.5t-28.5 -6t-22.5 -4t-14.5 -2t-6 -0.5h-67z" />
<glyph unicode="&#x41c;" horiz-adv-x="1829" d="M152 0v1489h270l372 -829l359 829h275v-1489h-198v1283l-388 -873h-120l-385 873v-1283h-185z" />
<glyph unicode="&#x41d;" horiz-adv-x="1565" d="M152 0v1489h198v-584h685v584h198v-1489h-198v729h-685v-729h-198z" />
<glyph unicode="&#x41e;" horiz-adv-x="1577" d="M66 724q0 81 7 154.5t26 153.5t49.5 146.5t80 128.5t114.5 105.5t156 71t202 31.5q15 1 29 1q91 0 176 -22q100 -25 180 -77t133 -121t90 -152.5t53 -172.5t20 -180q1 -22 1 -44q0 -68 -8 -133q-11 -86 -32 -162t-51 -136q-52 -106 -130.5 -181t-165.5 -111 q-88 -36 -182 -49q-47 -6 -92.5 -6.5t-89.5 6.5q-88 13 -165 42t-133 72q-268 206 -268 635zM270 727q2 -95 16 -176t48 -159.5t86 -132.5q52 -55 134 -87q76 -30 170 -30q9 0 18 1q92 2 171 39q86 41 145 118t84.5 168t32.5 193q2 36 2 70q0 64 -8 126q-13 94 -37 172.5 t-54 127.5q-62 97 -151.5 141t-211.5 47h-9q-55 0 -107 -12q-56 -13 -120 -54t-109.5 -106t-74.5 -180q-25 -101 -25 -230v-36z" />
<glyph unicode="&#x41f;" horiz-adv-x="1565" d="M151 0v1489h1081v-1489h-198v1313h-685v-1313h-198z" />
<glyph unicode="&#x420;" horiz-adv-x="1346" d="M154 -10v1489h199q217 0 358 -23.5t229 -79.5q90 -57 124 -146q30 -78 30 -192q0 -17 -1 -34q-5 -105 -45.5 -187t-107 -135.5t-158.5 -86.5q-94 -33 -200 -45q-70 -8 -147 -7q-40 0 -83 2v-555h-198zM352 714h228q35 4 74.5 13.5t92.5 35t83 59.5q58 63 58 182 q0 92 -26 150t-82 97q-50 35 -138 47q-76 11 -184 10h-36q-47 1 -70 1v-595z" />
<glyph unicode="&#x421;" horiz-adv-x="1367" d="M66 743q0 354 166.5 552.5t480.5 220.5q29 2 57 2q96 0 177 -24q105 -31 249 -104v-239q-76 64 -152 107.5t-138 61.5t-110 24q-27 3 -51 4q-18 0 -34 -2q-439 -55 -439 -577v-26q0 -131 27 -234t69 -167t102 -107.5t117.5 -63t123.5 -27.5q21 -2 42 -3q193 0 443 196 v-236q-84 -52 -178 -84q-95 -31 -192 -41q-43 -4 -85 -5q-55 0 -107 7q-94 12 -181 51.5t-159 101.5t-125.5 157t-78.5 214q-24 112 -24 241z" />
<glyph unicode="&#x422;" horiz-adv-x="1254" d="M0 1489h1198l3 -171h-500v-1318h-203v1318h-495z" />
<glyph unicode="&#x423;" horiz-adv-x="1370" d="M11 1545h211l378 -876l378 876h211l-532 -1224q-71 -166 -131 -229q-89 -93 -247 -93h-159v154h117q98 0 151 61q29 33 77 145l35 84z" />
<glyph unicode="&#x424;" horiz-adv-x="1796" d="M66 740q0 -344 286 -508q109 -64 309 -87v-145q14 -1 67 -1t99 1h46v142q156 17 287.5 83.5t210.5 187.5q36 55 60.5 126t32 152t-1.5 164t-44.5 163t-92.5 146.5t-150.5 117.5t-213.5 74q-16 3 -31.5 7t-27 6t-32.5 3v148h-215v-149q-589 -51 -589 -631zM283 742 q-3 105 17.5 188t56.5 135.5t87.5 89t102.5 53.5t110 24l2 -954q-66 6 -119.5 24t-91.5 43t-66.5 60.5t-46.5 72.5t-29.5 83t-16 88.5t-6.5 92.5zM868 276v956q94 -10 155 -43t120 -103q25 -30 46.5 -76t37 -103t20 -120.5t-2.5 -127t-33.5 -124.5t-68.5 -112t-112.5 -89.5 t-161.5 -57.5z" />
<glyph unicode="&#x425;" horiz-adv-x="1402" d="M8 0l473 745l-457 748h217l363 -589l381 589h217l-488 -738l467 -755h-227l-363 596l-369 -596h-214z" />
<glyph unicode="&#x426;" horiz-adv-x="1590" d="M152 0l1020 1v-340l190 1v515h-130v1312h-198v-1310l-684 -1v1311h-198v-1489zM350 175z" />
<glyph unicode="&#x427;" horiz-adv-x="1472" d="M151 1004q5 -105 45.5 -187t107 -135.5t159 -86.5t199 -44.5t230.5 -5.5v-555h198v1489h-198v-765h-228q-35 4 -74.5 13.5t-92.5 35t-83 59.5q-58 63 -58 182v477l-205 -1v-476z" />
<glyph unicode="&#x428;" horiz-adv-x="2231" d="M151 0v1489h198v-1313h524v1313h198v-1311l515 -1v1312h198v-1489h-1633zM1071 175z" />
<glyph unicode="&#x429;" horiz-adv-x="2259" d="M151 0v1489h198v-1313h524v1313h198v-1311l515 -1v1312h198v-1312h130l-1 -515l-187 -1l-2 340zM1071 175z" />
<glyph unicode="&#x42a;" horiz-adv-x="1651" d="M0 1291h435l-1 -1301h199q218 0 358.5 23.5t229.5 80t123.5 145.5t29.5 226q-5 105 -45.5 187t-107 135.5t-159 86.5t-199 44.5t-230.5 5.5v555l-633 1v-189zM633 160v595h229q34 -4 73.5 -13.5t92.5 -35t84 -58.5q57 -64 57 -183q0 -92 -26 -150t-83 -97 q-49 -34 -137 -46.5t-220 -11.5h-70z" />
<glyph unicode="&#x42b;" horiz-adv-x="1967" d="M151 -10h199q217 0 358 23.5t229.5 80t123 145.5t29.5 226q-5 105 -45.5 187t-107 135.5t-159 86.5t-199 44.5t-230.5 5.5v555h-198v-1489zM349 160v595h229q34 -4 73.5 -13.5t92.5 -35t84 -58.5q57 -64 57 -183q0 -92 -26 -150t-83 -97q-49 -34 -137 -46.5t-220 -11.5 h-70zM1248 -9v1490h184v-1490h-184z" />
<glyph unicode="&#x42c;" horiz-adv-x="1386" d="M151 -10h199q217 0 358 23.5t229.5 80t123 145.5t29.5 226q-5 105 -45.5 187t-107 135.5t-159 86.5t-199 44.5t-230.5 5.5v555h-198v-1489zM349 160v595h229q34 -4 73.5 -13.5t92.5 -35t84 -58.5q57 -64 57 -183q0 -92 -26 -150t-83 -97q-49 -34 -137 -46.5t-220 -11.5 h-70z" />
<glyph unicode="&#x42d;" horiz-adv-x="1367" d="M43 101q84 -52 178.5 -84t191.5 -41.5t191.5 2.5t181.5 51.5t159 101.5t125.5 157t78.5 214q24 112 24 241q0 354 -166.5 552.5t-480.5 220.5q-129 9 -234 -22t-249 -104v-239q76 64 152 107.5t138 62t109.5 24t85.5 1.5q378 -47 431 -441h-704v-176l713 1 q0 -95 -14.5 -174.5t-38 -137t-58 -103t-72 -74.5t-83 -50t-86.5 -31.5t-88 -15.5q-208 -24 -485 193v-236z" />
<glyph unicode="&#x42e;" horiz-adv-x="2309" d="M151 0v1516h184v-621h237q64 600 625 620q107 4 205 -21q100 -25 180 -77t133 -121t90 -152.5t53.5 -172.5t20 -180t-7.5 -177t-32 -162t-51 -136q-52 -106 -130.5 -181t-165.5 -111t-181.5 -49t-183 0t-165 42t-132.5 72q-33 26 -65 59.5t-68.5 89t-64 120t-47.5 155.5 t-23 192h-227v-705h-184zM766 727q2 -95 16 -176t48 -159.5t85.5 -132.5t134 -86.5t188.5 -29.5q92 2 171 39q86 41 145 118t84.5 168t32.5 193t-6 196t-37 172.5t-54 127.5q-62 97 -151.5 141t-211.5 47q-60 1 -116 -12t-120 -54t-109.5 -106t-74.5 -180t-25 -266z" />
<glyph unicode="&#x42f;" horiz-adv-x="1467" d="M-5 0h217l211 361q51 81 126 170q48 61 176 61h138v-592h198v1493h-359q-288 0 -430.5 -105.5t-142.5 -324.5q0 -173 89 -278t235 -105q-140 -47 -253 -272zM336 1048q0 137 80 204t229 67h218v-562h-227q-144 21 -222 94.5t-78 196.5z" />
<glyph unicode="&#x430;" horiz-adv-x="1226" d="M57 324q0 381 513 396l189 15v-10q17 48 17 88q0 71 -54 116q-76 64 -213 64q-179 0 -337 -92v170q188 78 355 78q419 -2 419 -510v-639h-187l7 151q-120 -178 -317 -178h-4h-16q-190 0 -279 92q-93 96 -93 259zM228 336q0 -100 81 -155q81 -54 182 -54h2q108 0 192 123 q74 110 74 272v41h-171h-16q-111 0 -180 -27q-164 -53 -164 -200z" />
<glyph unicode="&#x431;" horiz-adv-x="1286" d="M72 499q-10 217 4.5 351.5t58.5 232t133 191.5q69 73 180 123.5t237 71.5q139 24 216 26v-190q-15 2 -32 2.5t-30 0.5t-34.5 -2.5t-31 -4t-34.5 -5.5t-31 -5q-113 -18 -184 -37.5t-119 -56.5q-15 -19 -37.5 -44.5t-30.5 -35t-20.5 -27t-18 -32t-12 -36t-12.5 -52.5 q-3 -15 -12 -105q90 59 151.5 80t157.5 27q90 5 178 -31t155.5 -99.5t110 -154t45.5 -188.5q3 -91 -17 -168.5t-54 -130.5t-81 -95t-94 -67t-96 -41t-85.5 -22t-63.5 -6q-217 -6 -351 138.5t-146 391.5zM262 533.5q5 -106.5 15 -145.5q15 -60 49 -117q32 -53 92.5 -89 t127 -47t132 10.5t103.5 75.5q28 40 46 91.5t24.5 98t5.5 86.5q-2 69 -22.5 141t-53.5 100q-35 29 -95 43t-117 9q-123 -10 -191 -41t-108 -81q-13 -28 -8 -134.5z" />
<glyph unicode="&#x432;" horiz-adv-x="1245" d="M134 0v1124h351q135 0 238.5 -34t163 -101t59.5 -159q0 -51 -9 -86t-32 -65t-64.5 -49.5t-105.5 -32.5q127 -22 188 -89.5t61 -182.5q0 -66 -22 -119.5t-63 -90t-92 -62.5t-114.5 -40.5t-125.5 -21t-129 -6.5zM305 151q9 -1 24.5 -3.5t49.5 -5.5t53 -2q186 0 263.5 40 t77.5 145q0 101 -76.5 144.5t-228.5 42.5h-162zM306 674h170q147 0 203 28.5t56 111.5q0 87 -59 121t-208 34h-162v-295z" />
<glyph unicode="&#x433;" horiz-adv-x="1021" d="M136 1v1118l705 1v-159h-522l1 -961z" />
<glyph unicode="&#x434;" horiz-adv-x="1325" d="M8 163l1 -397h173v234h743v-246h173v406h-81l-1 961l-739 -1q-8 -227 -33.5 -438.5t-41.5 -268.5q-55 -196 -106 -247l-4 -3h-84zM271 162q14 31 23.5 49.5t13.5 23.5t8.5 15t12 31.5t21.5 66.5q13 43 30 146.5t27 185.5l10 81l21 205h409l-1 -805z" />
<glyph unicode="&#x435;" horiz-adv-x="1216" d="M59 572q0 119 28 211t96 181q138 178 394 178q229 0 352 -162q61 -80 86 -161t25 -189v-91h-800q12 -192 106.5 -300t274.5 -108q197 0 381 105v-175q-192 -87 -391 -87q-262 0 -407 159.5t-145 438.5zM246 683h620q0 100 -46 183t-113 104q-51 15 -129 15 q-142 0 -232.5 -91t-99.5 -211z" />
<glyph unicode="&#x436;" horiz-adv-x="1814" d="M8 0h230l428 547v-547h177v547l428 -547h230l-447 609l423 511h-226l-408 -483v484h-177v-484l-409 483h-225l423 -511z" />
<glyph unicode="&#x437;" horiz-adv-x="1074" d="M27 33v174q158 -73 296 -67q187 0 264 40t77 145q0 100 -76 143.5t-228 43.5h-163v162h170q149 0 209 29t60 111q0 86 -63 120.5t-213 34.5q-155 0 -291 -61v163q142 53 307 53q135 0 241 -34t168.5 -101.5t62.5 -158.5q0 -99 -49 -153.5t-172 -79.5q126 -22 187.5 -89.5 t61.5 -182.5q0 -66 -22.5 -119.5t-63.5 -90t-92 -62.5t-114.5 -40.5t-125.5 -21t-129 -6.5q-174 0 -302 48z" />
<glyph unicode="&#x438;" horiz-adv-x="1335" d="M135 1l193 -1l498 838v-838h184v1120l-176 -2l-514 -861v860h-184v-689z" />
<glyph unicode="&#x439;" horiz-adv-x="1335" d="M135 1l193 -1l498 838v-838h184v1120l-176 -2l-514 -861v860h-184v-689zM229 1534h118q23 -150 195 -150q170 0 195 150h118q-20 -287 -313 -287t-313 287z" />
<glyph unicode="&#x43a;" horiz-adv-x="1235" d="M136 0v1121h185v-484l425 483h235l-441 -511l466 -609h-240l-445 547v-547h-185z" />
<glyph unicode="&#x43b;" horiz-adv-x="1339" d="M11 0v157q41 2 67 5q6 1 12.5 0t17.5 1.5t22 6.5t26 16.5t30 31.5q27 34 44 110.5t22 143t8.5 150.5t4.5 96q7 82 11.5 182.5t5.5 160.5l1 59h715v-1120h-181v968h-382l-27 -407q-18 -221 -42 -322q-27 -109 -112 -180q-24 -21 -70 -36t-67 -18.5t-34 -4.5h-72z" />
<glyph unicode="&#x43c;" horiz-adv-x="1550" d="M136 1l184 -1v910l262 -492l140 -1l256 483l-1 -900h184v1120l-239 -2l-270 -528l-290 530l-226 -1v-1118z" />
<glyph unicode="&#x43d;" horiz-adv-x="1330" d="M136 1l184 -1l-1 542h509l-1 -542h184v1120h-184l1 -436h-509l2 433h-184z" />
<glyph unicode="&#x43e;" horiz-adv-x="1264" d="M57 559q0 263 124 417q135 171 390 171q224 -1 360 -172q124 -154 124 -417t-124 -417q-134 -170 -357 -170h-3q-255 0 -390 171q-124 154 -124 417zM251 559q0 -179 69 -293q82 -139 251 -139h2q132 0 217 139q70 115 70 292t-70 292q-84 140 -219 141q-166 0 -250 -139 q-70 -115 -70 -293z" />
<glyph unicode="&#x43f;" horiz-adv-x="1324" d="M136 1l184 -1l-1 961h509l-1 -961h184v1120l-875 -1v-1118z" />
<glyph unicode="&#x440;" horiz-adv-x="1289" d="M135 -412l3 1509h176v-161q50 186 282 186q214 0 333 -179q103 -154 103 -379q0 -226 -103 -380q-119 -179 -333 -179q-232 0 -282 81l-3 -498h-176zM314 565q0 -167 41 -279q41 -134 198 -134t235 134q62 110 62 278q0 167 -62 277q-78 134 -235 134t-194 -133 q-45 -110 -45 -277z" />
<glyph unicode="&#x441;" horiz-adv-x="1080" d="M82 583q0 270 158 419q131 119 383 137q160 -17 309 -86v-157q-158 86 -315 86q-190 0 -252 -92q-89 -113 -89 -307q-4 -43 -4 -82q0 -156 70 -245q68 -122 257 -122q161 0 306 121l9 -205q-154 -72 -335 -72q-262 0 -379 163q-121 135 -121 365q0 37 3 77z" />
<glyph unicode="&#x442;" horiz-adv-x="1066" d="M4 960v160h938v-160l-375 1l1 -961h-184l-2 961z" />
<glyph unicode="&#x443;" horiz-adv-x="1179" d="M6 1120h195l350 -876l350 876h195l-492 -1224q-66 -166 -121 -229q-83 -93 -229 -93h-147v154h108q91 0 140 61q27 33 71 145l33 84z" />
<glyph unicode="&#x444;" horiz-adv-x="1818" d="M74 583q0 270 119 419q98 119 287 137q54 -8 94 -26.5t107 -59.5v465h197v-462q63 39 105 57t98 26q189 -18 287 -137q118 -149 118 -419q18 -285 -88 -442q-88 -163 -284 -163q-64 0 -114 17t-116 55l-1 -462h-202v462q-60 -37 -114 -54.5t-120 -17.5q-197 0 -284 163 q-106 157 -89 442zM240 583q-17 -215 49 -327q26 -62 64.5 -87t108.5 -25q61 0 112.5 25.5t104.5 85.5l-1 641q-63 44 -104.5 60t-98.5 16q-71 0 -108 -18t-61 -64q-66 -113 -66 -307zM879 255q52 -59 105 -85t115 -26q70 0 108.5 25t63.5 87q67 112 50 327q0 194 -67 307 q-23 46 -60 64t-109 18q-60 0 -104.5 -16t-101.5 -60v-641z" />
<glyph unicode="&#x445;" horiz-adv-x="1238" d="M10 1120h217l297 -399l272 396h217l-380 -542l380 -575h-217l-280 440l-284 -440h-217l393 586z" />
<glyph unicode="&#x446;" horiz-adv-x="1343" d="M136 1l814 -1v-285h170v440h-109v965h-184l1 -961h-509l1 961l-184 -1v-1118z" />
<glyph unicode="&#x447;" horiz-adv-x="1261" d="M96 783q0 -237 252 -312q163 -49 428 -32l-1 -454h171v1124l-172 -1l1 -511h-163q-152 -2 -228.5 42t-76.5 144v329l-210 -1q0 -108 -0.5 -170.5t-0.5 -157.5z" />
<glyph unicode="&#x448;" horiz-adv-x="1891" d="M136 1v1118l184 1l-1 -961h389l-1 961h184l-2 -961h389l-1 961h184v-1120z" />
<glyph unicode="&#x449;" horiz-adv-x="1912" d="M136 1l1264 -1v-285h170v440h-109v965h-184l1 -961h-389l2 961h-184l1 -961h-389l1 961l-184 -1v-1118z" />
<glyph unicode="&#x44a;" horiz-adv-x="1386" d="M4 950v174h432l-1 -454q659 41 680 -318v-27q0 -66 -22 -119.5t-63 -90t-92 -62.5t-114.5 -40.5t-125.5 -21t-129 -6.5l-304 15v950h-261zM436 151q9 -1 24.5 -3.5t49.5 -5.5t53 -2q186 0 263.5 40t77.5 145q0 101 -76.5 144.5t-228.5 42.5h-163v-361z" />
<glyph unicode="&#x44b;" horiz-adv-x="1731" d="M136 0v1124h171l-1 -454q659 41 680 -318v-27q0 -66 -22 -119.5t-63 -90t-92 -62.5t-114.5 -40.5t-125.5 -21t-129 -6.5zM307 151q9 -1 24.5 -3.5t49.5 -5.5t53 -2q186 0 263.5 40t77.5 145q0 101 -76.5 144.5t-228.5 42.5h-162zM1086 1v1118l184 1v-1120z" />
<glyph unicode="&#x44c;" horiz-adv-x="1177" d="M136 0v1124h171l-1 -454q659 41 680 -318v-27q0 -66 -22 -119.5t-63 -90t-92 -62.5t-114.5 -40.5t-125.5 -21t-129 -6.5zM307 151q9 -1 24.5 -3.5t49.5 -5.5t53 -2q186 0 263.5 40t77.5 145q0 101 -76.5 144.5t-228.5 42.5h-162z" />
<glyph unicode="&#x44d;" horiz-adv-x="1088" d="M42 896v157q149 69 309 86q252 -18 383 -137q158 -149 158 -419q23 -285 -118 -442q-117 -163 -379 -163q-181 0 -335 72l9 205q145 -121 306 -121q189 0 257 122q80 101 69 286h-498v146h488q-19 122 -82 202q-62 92 -252 92q-157 0 -315 -86z" />
<glyph unicode="&#x44e;" horiz-adv-x="1890" d="M136 1l1 1116h184l-2 -433h195q22 174 117 292q135 171 390 171q224 -1 360 -172q124 -154 124 -417t-124 -417q-135 -171 -360 -170q-255 0 -390 171q-119 147 -124 400h-188l1 -542zM701 559q0 -179 69 -293q82 -139 251 -139q133 -1 219 139q70 115 70 292t-70 292 q-84 140 -219 141q-166 0 -250 -139q-70 -115 -70 -293z" />
<glyph unicode="&#x44f;" horiz-adv-x="1248" d="M21 0q26 28 68 75t131 145.5t145 164.5t50 68q-83 15 -144.5 44t-96 61.5t-55 74.5t-26.5 76.5t-6 73.5q0 66 22.5 120t63 90t92 62.5t115 41t125 21t129.5 6.5l303 -15v-1108h-171l1 438q-84 -6 -158 -4l-362 -435h-226zM298 783q0 -100 76.5 -144t228.5 -42h163v361 q-9 1 -24 3t-49.5 5.5t-52.5 2.5q-187 0 -264.5 -40t-77.5 -146z" />
<glyph unicode="&#x450;" horiz-adv-x="1216" d="M259 1642h243l179 -374h-149zM59 572q0 119 28 211t96 181q138 178 394 178q229 0 352 -162q61 -80 86 -161t25 -189v-91h-800q12 -192 106.5 -300t274.5 -108q197 0 381 105v-175q-192 -87 -391 -87q-262 0 -407 159.5t-145 438.5zM246 683h620q0 100 -46 183t-113 104 q-51 15 -129 15q-142 0 -232.5 -91t-99.5 -211z" />
<glyph unicode="&#x451;" horiz-adv-x="1216" d="M247 1360v203h203v-203h-203zM660 1360v203h203v-203h-203zM59 572q0 119 28 211t96 181q138 178 394 178q229 0 352 -162q61 -80 86 -161t25 -189v-91h-800q12 -192 106.5 -300t274.5 -108q197 0 381 105v-175q-192 -87 -391 -87q-262 0 -407 159.5t-145 438.5zM246 683 h620q0 100 -46 183t-113 104q-51 15 -129 15q-142 0 -232.5 -91t-99.5 -211z" />
<glyph unicode="&#x453;" horiz-adv-x="1021" d="M749 1269l237 375h222l-275 -375h-184zM136 1v1118l705 1v-159h-522l1 -961z" />
<glyph unicode="&#x455;" horiz-adv-x="1054" d="M68 27v190q197 -104 352 -104h6q270 0 270 170q0 74 -50 115q-44 35 -222 77l-64 15q-119 34 -190 93q-94 76 -94 220q0 173 134 259q113 71 257 73q207 0 358 -60v-174q-158 80 -336 80q-235 -1 -235 -170q0 -81 88 -124q1 -18 119 -44l63 -14q176 -39 252 -97 q109 -82 109 -235q0 -177 -151 -265q-121 -73 -312 -73h-8q-138 0 -346 68z" />
<glyph unicode="&#x456;" horiz-adv-x="618" d="M127 0v1120h184v-1120h-184zM127 1323v233h184v-233h-184z" />
<glyph unicode="&#x457;" horiz-adv-x="618" d="M-52 1304v203h203v-203h-203zM165 0v1120h184v-1120h-184zM361 1304v203h203v-203h-203z" />
<glyph unicode="&#x458;" horiz-adv-x="743" d="M-90 -255h49q117 0 155 69q26 50 26 181v1140h184v-1140q0 -201 -70 -295q-83 -112 -274 -112h-70v157zM140 1338v233h184v-233h-184z" />
<glyph unicode="&#x45c;" horiz-adv-x="1235" d="M137 1269l237 375h222l-275 -375h-184zM136 0v1121h185v-484l425 483h235l-441 -511l466 -609h-240l-445 547v-547h-185z" />
<glyph unicode="&#x45d;" horiz-adv-x="1335" d="M662 1643h243l179 -374h-149zM135 1l193 -1l498 838v-838h184v1120l-176 -2l-514 -861v860h-184v-689z" />
<glyph unicode="&#x45e;" horiz-adv-x="1179" d="M6 1120h195l350 -876l350 876h195l-492 -1224q-66 -166 -121 -229q-83 -93 -229 -93h-147v154h108q91 0 140 61q27 33 71 145l33 84zM241 1637h139l180 -245l180 245h139l-245 -376h-148z" />
<glyph unicode="&#x490;" horiz-adv-x="1158" d="M151 0v1493h439l304 -1v102h138l1 -266l-684 -1v-1327h-198z" />
<glyph unicode="&#x491;" horiz-adv-x="1021" d="M136 1v1118l572 1v121h133v-280h-522l1 -961z" />
<glyph unicode="&#x492;" horiz-adv-x="1158" d="M30 828v165h120l1 500h439h443v-165l-685 1v-336h516v-165h-516l1 -828h-198l-1 828h-120z" />
<glyph unicode="&#x493;" horiz-adv-x="1021" d="M30 537v165h105l1 417l705 1v-159h-522l-1 -259h345v-165h-342l-1 -537l-184 1l-1 536h-105z" />
<glyph unicode="&#x49a;" horiz-adv-x="1426" d="M152 0v1489h198v-665l610 665h241l-615 -665l542 -696h132v-404h-176v276h-104l-630 775v-775h-198z" />
<glyph unicode="&#x49b;" horiz-adv-x="1235" d="M136 0v1121h185v-484l425 483h235l-441 -511l366 -483h138v-399h-174v273h-104l-445 547v-547h-185z" />
<glyph unicode="&#x4a2;" horiz-adv-x="1565" d="M152 0v1489h198v-584h685v584h198l-1 -1361h200v-412h-168v284h-229v729h-685v-729h-198zM152 0v1489h198v-584h685v584h198l-198 -760h-685v-729h-198z" />
<glyph unicode="&#x4a3;" horiz-adv-x="1330" d="M136 1l184 -1l-1 542h509l-1 -542h209v-280h176v404h-200l-1 996h-184l1 -436h-509l2 433h-184z" />
<glyph unicode="&#x4ae;" horiz-adv-x="1373" d="M-10 1489h220l384 -657l390 657h210l-503 -830l2 -659h-203l3 638z" />
<glyph unicode="&#x4af;" horiz-adv-x="1185" d="M6 1117h195l311 -883l299 883h195l-422 -1117l1 -408h-168l-1 408z" />
<glyph unicode="&#x4b0;" horiz-adv-x="1373" d="M-10 1489h220l384 -657l390 657h210l-502 -853v-92h304v-180h-304l1 -364h-203l-2 364h-304v176h304v96z" />
<glyph unicode="&#x4b1;" horiz-adv-x="1185" d="M6 1117h195l311 -883l299 883h195l-422 -1117l1 -30h198v-162h-198v-216h-168v216h-201v162h201l-1 30z" />
<glyph unicode="&#x4ba;" horiz-adv-x="1311" d="M135 0v1496h185l-1 -669q130 201 362 201q84 0 161 -30t139.5 -87t100 -148.5t37.5 -205.5l1 -557h-184l-1 551q0 75 -28.5 138t-73 100.5t-95 58t-98.5 20.5q-155 0 -241 -101q-80 -95 -80 -253l1 -514h-185z" />
<glyph unicode="&#x4bb;" horiz-adv-x="1311" d="M135 0v1376h185l-1 -645q130 201 362 201q171 0 276.5 -121.5t105.5 -349.5l1 -461h-184l-1 455q0 150 -70 233.5t-169 83.5q-155 0 -241 -101q-80 -95 -80 -253l1 -418h-185z" />
<glyph unicode="&#x4c0;" horiz-adv-x="990" d="M92 0v152h188v1185h-188v152h578v-152h-192v-1185h192v-152h-578z" />
<glyph unicode="&#x4c1;" horiz-adv-x="2138" d="M602 1924h118q23 -150 195 -150q170 0 195 150h118q-20 -287 -313 -287t-313 287zM0 0h250l569 775v-775h192v775l569 -775h250l-590 824l555 665h-234l-550 -665v665h-192v-665l-550 665h-234l555 -665z" />
<glyph unicode="&#x4c2;" horiz-adv-x="1814" d="M441 1556h118q23 -150 195 -150q170 0 195 150h118q-20 -287 -313 -287t-313 287zM8 0h230l428 547v-547h177v547l428 -547h230l-447 609l423 511h-226l-408 -483v484h-177v-484l-409 483h-225l423 -511z" />
<glyph unicode="&#x4d0;" horiz-adv-x="1402" d="M301 1924h118q23 -150 195 -150q170 0 195 150h118q-20 -287 -313 -287t-313 287zM-10 0l510 1493h229l509 -1493h-209l-135 416h-569l-135 -416h-200zM380 585h459l-225 709z" />
<glyph unicode="&#x4d1;" horiz-adv-x="1226" d="M214 1558h118q23 -150 195 -150q170 0 195 150h118q-20 -287 -313 -287t-313 287zM57 324q0 381 513 396l189 15v-10q17 48 17 88q0 71 -54 116q-76 64 -213 64q-179 0 -337 -92v170q188 78 355 78q419 -2 419 -510v-639h-187l7 151q-120 -178 -317 -178h-4h-16 q-190 0 -279 92q-93 96 -93 259zM228 336q0 -100 81 -155q81 -54 182 -54h2q108 0 192 123q74 110 74 272v41h-171h-16q-111 0 -180 -27q-164 -53 -164 -200z" />
<glyph unicode="&#x4d2;" horiz-adv-x="1402" d="M306 1637v203h203v-203h-203zM719 1637v203h203v-203h-203zM-10 0l510 1493h229l509 -1493h-209l-135 416h-569l-135 -416h-200zM380 585h459l-225 709z" />
<glyph unicode="&#x4d3;" horiz-adv-x="1226" d="M219 1271v203h203v-203h-203zM632 1271v203h203v-203h-203zM57 324q0 381 513 396l189 15v-10q17 48 17 88q0 71 -54 116q-76 64 -213 64q-179 0 -337 -92v170q188 78 355 78q419 -2 419 -510v-639h-187l7 151q-120 -178 -317 -178h-4h-16q-190 0 -279 92q-93 96 -93 259 zM228 336q0 -100 81 -155q81 -54 182 -54h2q108 0 192 123q74 110 74 272v41h-171h-16q-111 0 -180 -27q-164 -53 -164 -200z" />
<glyph unicode="&#x4d4;" horiz-adv-x="2025" d="M-39 0l619 1493h1202v-170h-706v-442h676v-170h-676v-541h724v-170h-910v383h-567l-159 -383h-203zM391 551h499v784h-172z" />
<glyph unicode="&#x4d5;" horiz-adv-x="1919" d="M57 326q0 381 504 381h258v18q0 136 -94 205q-83 61 -224 61q-192 0 -362 -92v170q203 78 381 78q296 0 368 -177q125 188 392 188q238 0 368 -154q122 -146 122 -387v-90h-846q25 -391 399 -391q205 0 404 106v-174q-208 -86 -414 -86q-337 0 -425 229 q-146 -240 -432 -240q-178 0 -285 86q-114 93 -114 269zM241 338q0 -103 70 -160q65 -53 170 -53q163 0 255 120q83 110 83 277v41h-183q-179 0 -261 -29q-134 -50 -134 -196zM930 670l655 1q-1 146 -78 236q-82 95 -225 95q-154 0 -246 -87.5t-106 -244.5z" />
<glyph unicode="&#x4d6;" horiz-adv-x="1260" d="M305 1924h118q23 -150 195 -150q170 0 195 150h118q-20 -287 -313 -287t-313 287zM152 0v1489h931v-176h-733v-408h683v-176h-683v-553h733v-176h-931z" />
<glyph unicode="&#x4d7;" horiz-adv-x="1216" d="M264 1556h118q23 -150 195 -150q170 0 195 150h118q-20 -287 -313 -287t-313 287zM59 572q0 119 28 211t96 181q138 178 394 178q229 0 352 -162q61 -80 86 -161t25 -189v-91h-800q12 -192 106.5 -300t274.5 -108q197 0 381 105v-175q-192 -87 -391 -87 q-262 0 -407 159.5t-145 438.5zM246 683h620q0 100 -46 183t-113 104q-51 15 -129 15q-142 0 -232.5 -91t-99.5 -211z" />
<glyph unicode="&#x4d8;" horiz-adv-x="1577" d="M66 724q0 73 6 140h1100q-2 67 -17.5 125.5t-32 90t-44.5 77.5q-124 197 -370 203q-58 1 -139 -23t-141 -61q1 0 -15.5 37t-33.5 74l-17 37q138 84 339 91q107 4 205 -21q100 -25 180 -77t133 -121t90 -152.5t53.5 -172.5t20 -180t-7.5 -177t-32 -162t-51 -136 q-52 -106 -130.5 -181t-165.5 -111t-181.5 -49t-183 0t-165 42t-132.5 72q-268 206 -268 635zM272 700q2 -116 29 -214t81 -178t146 -124t214 -41q92 2 171 39q86 41 149 126t91.5 187t22.5 205h-904z" />
<glyph unicode="&#x4d9;" horiz-adv-x="1264" d="M57 559q0 -263 124 -417q135 -171 390 -171q225 -1 360 170q124 154 124 417t-124 417q-136 171 -360 172q-138 0 -250 -64l69 -150q73 58 181 58q135 -1 219 -141q54 -88 62 -232h-324h-1h-1h-1h-1h-1h-1h-1h-1h-1h-1h-1h-1h-1h-1h-1h-1h-1h-1h-1h-1h-1h-1h-1h-1h-1h-1 h-1h-1h-1h-1h-1h-1h-1h-1h-1h-1h-1h-1h-1h-1h-1h-1h-1h-1h-1h-1h-1h-1h-1h-1h-1h-1h-1h-1h-1h-1h-1h-1h-1h-1h-1h-1h-1h-1h-1h-1h-1h-1h-1h-1h-1h-1h-1h-1h-1h-1h-1h-1h-1h-1h-1h-1h-1h-2h-1h-1h-1h-1h-1h-1h-1h-1h-1h-1h-1h-2h-1h-1h-1h-1h-1h-1h-1h-2h-1h-1h-1h-1h-1h-2 h-1h-1h-1h-1h-1h-2h-1h-1h-1h-1h-2h-1h-1h-1h-2h-1h-1h-1h-2h-1h-1h-1h-2h-1h-1h-1h-2h-1h-1h-1h-2h-1h-1h-2h-1h-1h-2h-1h-1h-2h-1h-1h-2h-1h-1h-2h-1h-1h-2h-1h-1h-2h-1h-2h-1h-1h-2h-1h-1h-2h-1h-2h-1h-2h-1h-1h-2h-1h-2h-1h-1h-2h-1h-2h-1h-2h-1h-2h-1h-2h-1h-2h-1h-1 h-2h-1h-2h-1h-2h-1h-2h-1h-2h-1h-2h-1h-2h-1h-2h-2h-1h-2h-1h-2h-1h-2h-1h-2h-1h-2h-2h-1h-2h-1h-2h-1h-2h-2h-1h-2h-1h-2h-2h-1h-2h-1h-2h-2h-1h-2h-1h-2h-2h-1h-2h-2h-1h-2h-2h-1h-2h-2h-1h-2h-2h-1h-2h-2h-1h-2h-2h-1h-2h-2h-1h-2h-2h-1h-2h-2h-2h-1h-2h-2h-1h-2h-2h-2 h-1h-2h-2h-2h-1h-2h-2h-2h-1h-2h-2h-2h-1h-2h-2h-2h-2h-1h-2h-2h-2h-2h-1h-2h-2h-2h-2h-1h-2h-2h-2h-2h-2h-1h-2h-2h-2h-2h-2h-2h-1h-2h-2h-2h-2h-2h-2h-1h-2h-2h-2h-2h-2h-2h-2h-2h-8v-1v-1v-1v-1v-1v-1v-1v-1v-1v-1v-2v-1v-1v-1v-1v-2v-1v-1v-1v-2v-1v-2v-1v-2v-1v-2v-1 v-2v-1v-2v-2v-1v-2v-2v-2v-1v-2v-9zM253 456h43h106h95h49h309q-3 -46 -12 -79.5t-18.5 -51.5t-34.5 -59q-86 -140 -219 -139q-169 0 -251 139q-23 38 -33.5 58t-20 54.5t-13.5 77.5z" />
<glyph unicode="&#x4da;" horiz-adv-x="1577" d="M422 1638v203h203v-203h-203zM835 1638v203h203v-203h-203zM66 724q0 73 6 140h1100q-2 67 -17.5 125.5t-32 90t-44.5 77.5q-124 197 -370 203q-58 1 -139 -23t-141 -61q1 0 -15.5 37t-33.5 74l-17 37q138 84 339 91q107 4 205 -21q100 -25 180 -77t133 -121t90 -152.5 t53.5 -172.5t20 -180t-7.5 -177t-32 -162t-51 -136q-52 -106 -130.5 -181t-165.5 -111t-181.5 -49t-183 0t-165 42t-132.5 72q-268 206 -268 635zM272 700q2 -116 29 -214t81 -178t146 -124t214 -41q92 2 171 39q86 41 149 126t91.5 187t22.5 205h-904z" />
<glyph unicode="&#x4db;" horiz-adv-x="1264" d="M263 1269v203h203v-203h-203zM676 1269v203h203v-203h-203zM57 559q0 -263 124 -417q135 -171 390 -171q225 -1 360 170q124 154 124 417t-124 417q-136 171 -360 172q-138 0 -250 -64l69 -150q73 58 181 58q135 -1 219 -141q54 -88 62 -232h-324h-1h-1h-1h-1h-1h-1h-1 h-1h-1h-1h-1h-1h-1h-1h-1h-1h-1h-1h-1h-1h-1h-1h-1h-1h-1h-1h-1h-1h-1h-1h-1h-1h-1h-1h-1h-1h-1h-1h-1h-1h-1h-1h-1h-1h-1h-1h-1h-1h-1h-1h-1h-1h-1h-1h-1h-1h-1h-1h-1h-1h-1h-1h-1h-1h-1h-1h-1h-1h-1h-1h-1h-1h-1h-1h-1h-1h-1h-1h-1h-1h-1h-1h-1h-2h-1h-1h-1h-1h-1h-1h-1 h-1h-1h-1h-1h-2h-1h-1h-1h-1h-1h-1h-1h-2h-1h-1h-1h-1h-1h-2h-1h-1h-1h-1h-1h-2h-1h-1h-1h-1h-2h-1h-1h-1h-2h-1h-1h-1h-2h-1h-1h-1h-2h-1h-1h-1h-2h-1h-1h-1h-2h-1h-1h-2h-1h-1h-2h-1h-1h-2h-1h-1h-2h-1h-1h-2h-1h-1h-2h-1h-1h-2h-1h-2h-1h-1h-2h-1h-1h-2h-1h-2h-1h-2h-1 h-1h-2h-1h-2h-1h-1h-2h-1h-2h-1h-2h-1h-2h-1h-2h-1h-2h-1h-1h-2h-1h-2h-1h-2h-1h-2h-1h-2h-1h-2h-1h-2h-1h-2h-2h-1h-2h-1h-2h-1h-2h-1h-2h-1h-2h-2h-1h-2h-1h-2h-1h-2h-2h-1h-2h-1h-2h-2h-1h-2h-1h-2h-2h-1h-2h-1h-2h-2h-1h-2h-2h-1h-2h-2h-1h-2h-2h-1h-2h-2h-1h-2h-2h-1 h-2h-2h-1h-2h-2h-1h-2h-2h-1h-2h-2h-2h-1h-2h-2h-1h-2h-2h-2h-1h-2h-2h-2h-1h-2h-2h-2h-1h-2h-2h-2h-1h-2h-2h-2h-2h-1h-2h-2h-2h-2h-1h-2h-2h-2h-2h-1h-2h-2h-2h-2h-2h-1h-2h-2h-2h-2h-2h-2h-1h-2h-2h-2h-2h-2h-2h-1h-2h-2h-2h-2h-2h-2h-2h-2h-8v-1v-1v-1v-1v-1v-1v-1v-1 v-1v-1v-2v-1v-1v-1v-1v-2v-1v-1v-1v-2v-1v-2v-1v-2v-1v-2v-1v-2v-1v-2v-2v-1v-2v-2v-2v-1v-2v-9zM253 456h43h106h95h49h309q-3 -46 -12 -79.5t-18.5 -51.5t-34.5 -59q-86 -140 -219 -139q-169 0 -251 139q-23 38 -33.5 58t-20 54.5t-13.5 77.5z" />
<glyph unicode="&#x4dc;" horiz-adv-x="2138" d="M607 1637v203h203v-203h-203zM1020 1637v203h203v-203h-203zM0 0h250l569 775v-775h192v775l569 -775h250l-590 824l555 665h-234l-550 -665v665h-192v-665l-550 665h-234l555 -665z" />
<glyph unicode="&#x4dd;" horiz-adv-x="1814" d="M446 1269v203h203v-203h-203zM859 1269v203h203v-203h-203zM8 0h230l428 547v-547h177v547l428 -547h230l-447 609l423 511h-226l-408 -483v484h-177v-484l-409 483h-225l423 -511z" />
<glyph unicode="&#x4de;" horiz-adv-x="1302" d="M137 1650v203h203v-203h-203zM550 1650v203h203v-203h-203zM34 45v195q187 -99 349 -91q428 0 428 293q0 137 -104 209t-281 72h-192v166h200q116 0 199 22t132 71.5t49 124.5q0 117 -106 184t-282 67q-182 0 -342 -82v180q166 72 361 72q119 0 225 -27t188 -76.5 t129.5 -126.5t47.5 -170q0 -129 -72 -205t-223 -111q149 -30 221 -122t72 -248q0 -77 -20 -142t-55 -112t-84.5 -83.5t-105 -60t-121 -38.5t-128 -21t-130.5 -6q-205 0 -355 66z" />
<glyph unicode="&#x4df;" horiz-adv-x="1074" d="M68 1269v203h203v-203h-203zM481 1269v203h203v-203h-203zM27 33v174q158 -73 296 -67q187 0 264 40t77 145q0 100 -76 143.5t-228 43.5h-163v162h170q149 0 209 29t60 111q0 86 -63 120.5t-213 34.5q-155 0 -291 -61v163q142 53 307 53q135 0 241 -34t168.5 -101.5 t62.5 -158.5q0 -99 -49 -153.5t-172 -79.5q126 -22 187.5 -89.5t61.5 -182.5q0 -66 -22.5 -119.5t-63.5 -90t-92 -62.5t-114.5 -40.5t-125.5 -21t-129 -6.5q-174 0 -302 48z" />
<glyph unicode="&#x4e2;" horiz-adv-x="1588" d="M181 1637v135h1005v-135h-1005zM151 0h222l658 1284v-1284h185v1489h-281l-599 -1179v1179h-185v-1489z" />
<glyph unicode="&#x4e3;" horiz-adv-x="1335" d="M508 1269v135h1005v-135h-1005zM135 1l193 -1l498 838v-838h184v1120l-176 -2l-514 -861v860h-184v-689z" />
<glyph unicode="&#x4e4;" horiz-adv-x="1588" d="M376 1637v203h203v-203h-203zM789 1637v203h203v-203h-203zM151 0h222l658 1284v-1284h185v1489h-281l-599 -1179v1179h-185v-1489z" />
<glyph unicode="&#x4e5;" horiz-adv-x="1335" d="M702 1269v203h203v-203h-203zM1115 1269v203h203v-203h-203zM135 1l193 -1l498 838v-838h184v1120l-176 -2l-514 -861v860h-184v-689z" />
<glyph unicode="&#x4e6;" horiz-adv-x="1577" d="M422 1638v203h203v-203h-203zM835 1638v203h203v-203h-203zM66 724q0 81 7 154.5t26 153.5t49.5 146.5t80 128.5t114.5 105.5t156 71t202 31.5q15 1 29 1q91 0 176 -22q100 -25 180 -77t133 -121t90 -152.5t53 -172.5t20 -180q1 -22 1 -44q0 -68 -8 -133 q-11 -86 -32 -162t-51 -136q-52 -106 -130.5 -181t-165.5 -111q-88 -36 -182 -49q-47 -6 -92.5 -6.5t-89.5 6.5q-88 13 -165 42t-133 72q-268 206 -268 635zM270 727q2 -95 16 -176t48 -159.5t86 -132.5q52 -55 134 -87q76 -30 170 -30q9 0 18 1q92 2 171 39q86 41 145 118 t84.5 168t32.5 193q2 36 2 70q0 64 -8 126q-13 94 -37 172.5t-54 127.5q-62 97 -151.5 141t-211.5 47h-9q-55 0 -107 -12q-56 -13 -120 -54t-109.5 -106t-74.5 -180q-25 -101 -25 -230v-36z" />
<glyph unicode="&#x4e7;" horiz-adv-x="1264" d="M263 1269v203h203v-203h-203zM676 1269v203h203v-203h-203zM57 559q0 263 124 417q135 171 390 171q224 -1 360 -172q124 -154 124 -417t-124 -417q-134 -170 -357 -170h-3q-255 0 -390 171q-124 154 -124 417zM251 559q0 -179 69 -293q82 -139 251 -139h2q132 0 217 139 q70 115 70 292t-70 292q-84 140 -219 141q-166 0 -250 -139q-70 -115 -70 -293z" />
<glyph unicode="&#x4e8;" horiz-adv-x="1577" d="M66 724q0 81 7 154.5t26 153.5t49.5 146.5t80 128.5t114.5 105.5t156 71t202 31.5q107 4 205 -21q100 -25 180 -77t133 -121t90 -152.5t53.5 -172.5t20 -180t-7.5 -177t-32 -162t-51 -136q-52 -106 -130.5 -181t-165.5 -111t-181.5 -49t-183 0t-165 42t-132.5 72 q-268 206 -268 635zM272 700q2 -116 29 -214t81 -178t146 -124t214 -41q92 2 171 39q86 41 149 126t91.5 187t22.5 205h-904zM280 864h892q-2 67 -17.5 125.5t-32 90t-44.5 77.5q-62 97 -151.5 141t-211.5 47q-41 0 -76 -3t-80.5 -14.5t-82 -31t-73.5 -56.5t-62.5 -86 t-42 -123.5t-18.5 -166.5z" />
<glyph unicode="&#x4e9;" horiz-adv-x="1264" d="M57 559q0 263 124 417q135 171 390 171q224 -1 360 -172q124 -154 124 -417t-124 -417q-135 -171 -360 -170q-255 0 -390 171q-124 154 -124 417zM253 471q5 -64 20.5 -109.5t46.5 -95.5q82 -139 251 -139q133 -1 219 139q32 53 46.5 95t18.5 110h-309h-49h-95h-106h-43z M253 633h1h1h1h1h1h1h1h1h1h1h1h1h1h1h1h1h1h1h1h1h1h1h1h1h1h1h1h1h1h1h1h1h1h1h1h1h1h1h1h1h1h1h1h1h1h1h1h1h1h1h1h1h2h1h1h1h1h1h1h1h1h2h1h1h1h1h1h2h1h1h1h1h2h1h1h1h2h1h1h1h2h1h1h2h1h1h2h1h1h2h1h1h2h1h1h2h1h1h2h1h2h1h1h2h1h2h1h2h1h2h1h1h2h1h2h1h2h1h2h1h2h1h2 h1h2h2h1h2h1h2h1h2h1h2h2h1h2h1h2h2h1h2h1h2h2h1h2h2h1h2h2h1h2h2h1h2h2h1h2h2h2h1h2h2h1h2h2h2h1h2h2h2h2h1h2h2h2h1h2h2h2h2h2h1h2h2h2h2h1h2h2h2h2h2h8h324q-4 72 -18 119.5t-44 97.5q-84 140 -219 141q-166 0 -250 -139q-59 -97 -68 -219z" />
<glyph unicode="&#x4ea;" horiz-adv-x="1577" d="M422 1638v203h203v-203h-203zM835 1638v203h203v-203h-203zM66 724q0 81 7 154.5t26 153.5t49.5 146.5t80 128.5t114.5 105.5t156 71t202 31.5q107 4 205 -21q100 -25 180 -77t133 -121t90 -152.5t53.5 -172.5t20 -180t-7.5 -177t-32 -162t-51 -136q-52 -106 -130.5 -181 t-165.5 -111t-181.5 -49t-183 0t-165 42t-132.5 72q-268 206 -268 635zM272 700q2 -116 29 -214t81 -178t146 -124t214 -41q92 2 171 39q86 41 149 126t91.5 187t22.5 205h-904zM280 864h892q-2 67 -17.5 125.5t-32 90t-44.5 77.5q-62 97 -151.5 141t-211.5 47q-41 0 -76 -3 t-80.5 -14.5t-82 -31t-73.5 -56.5t-62.5 -86t-42 -123.5t-18.5 -166.5z" />
<glyph unicode="&#x4eb;" horiz-adv-x="1264" d="M263 1269v203h203v-203h-203zM676 1269v203h203v-203h-203zM57 559q0 263 124 417q135 171 390 171q224 -1 360 -172q124 -154 124 -417t-124 -417q-135 -171 -360 -170q-255 0 -390 171q-124 154 -124 417zM253 471q5 -64 20.5 -109.5t46.5 -95.5q82 -139 251 -139 q133 -1 219 139q32 53 46.5 95t18.5 110h-309h-49h-95h-106h-43zM253 633h1h1h1h1h1h1h1h1h1h1h1h1h1h1h1h1h1h1h1h1h1h1h1h1h1h1h1h1h1h1h1h1h1h1h1h1h1h1h1h1h1h1h1h1h1h1h1h1h1h1h1h1h2h1h1h1h1h1h1h1h1h2h1h1h1h1h1h2h1h1h1h1h2h1h1h1h2h1h1h1h2h1h1h2h1h1h2h1h1h2h1h1 h2h1h1h2h1h1h2h1h2h1h1h2h1h2h1h2h1h2h1h1h2h1h2h1h2h1h2h1h2h1h2h1h2h2h1h2h1h2h1h2h1h2h2h1h2h1h2h2h1h2h1h2h2h1h2h2h1h2h2h1h2h2h1h2h2h1h2h2h2h1h2h2h1h2h2h2h1h2h2h2h2h1h2h2h2h1h2h2h2h2h2h1h2h2h2h2h1h2h2h2h2h2h8h324q-4 72 -18 119.5t-44 97.5q-84 140 -219 141 q-166 0 -250 -139q-59 -97 -68 -219z" />
<glyph unicode="&#x4ec;" horiz-adv-x="1367" d="M161 1640v203h203v-203h-203zM574 1640v203h203v-203h-203zM43 101q84 -52 178.5 -84t191.5 -41.5t191.5 2.5t181.5 51.5t159 101.5t125.5 157t78.5 214q24 112 24 241q0 354 -166.5 552.5t-480.5 220.5q-129 9 -234 -22t-249 -104v-239q76 64 152 107.5t138 62t109.5 24 t85.5 1.5q378 -47 431 -441h-704v-176l713 1q0 -95 -14.5 -174.5t-38 -137t-58 -103t-72 -74.5t-83 -50t-86.5 -31.5t-88 -15.5q-208 -24 -485 193v-236z" />
<glyph unicode="&#x4ed;" horiz-adv-x="1088" d="M43 1269v203h203v-203h-203zM456 1269v203h203v-203h-203zM42 896v157q149 69 309 86q252 -18 383 -137q158 -149 158 -419q23 -285 -118 -442q-117 -163 -379 -163q-181 0 -335 72l9 205q145 -121 306 -121q189 0 257 122q80 101 69 286h-498v146h488q-19 122 -82 202 q-62 92 -252 92q-157 0 -315 -86z" />
<glyph unicode="&#x4ee;" horiz-adv-x="1370" d="M98 1667v135h1005v-135h-1005zM11 1545h211l378 -876l378 876h211l-532 -1224q-71 -166 -131 -229q-89 -93 -247 -93h-159v154h117q98 0 151 61q29 33 77 145l35 84z" />
<glyph unicode="&#x4ef;" horiz-adv-x="1179" d="M48 1269v135h1005v-135h-1005zM6 1120h195l350 -876l350 876h195l-492 -1224q-66 -166 -121 -229q-83 -93 -229 -93h-147v154h108q91 0 140 61q27 33 71 145l33 84z" />
<glyph unicode="&#x4f0;" horiz-adv-x="1370" d="M292 1667v203h203v-203h-203zM705 1667v203h203v-203h-203zM11 1545h211l378 -876l378 876h211l-532 -1224q-71 -166 -131 -229q-89 -93 -247 -93h-159v154h117q98 0 151 61q29 33 77 145l35 84z" />
<glyph unicode="&#x4f1;" horiz-adv-x="1179" d="M243 1269v203h203v-203h-203zM656 1269v203h203v-203h-203zM6 1120h195l350 -876l350 876h195l-492 -1224q-66 -166 -121 -229q-83 -93 -229 -93h-147v154h108q91 0 140 61q27 33 71 145l33 84z" />
<glyph unicode="&#x4f2;" horiz-adv-x="1370" d="M330 1667h137l223 376h-170zM736 1667h135l248 376h-178zM11 1545h211l378 -876l378 876h211l-532 -1224q-71 -166 -131 -229q-89 -93 -247 -93h-159v154h117q98 0 151 61q29 33 77 145l35 84z" />
<glyph unicode="&#x4f3;" horiz-adv-x="1179" d="M280 1269h137l223 376h-170zM686 1269h135l248 376h-178zM6 1120h195l350 -876l350 876h195l-492 -1224q-66 -166 -121 -229q-83 -93 -229 -93h-147v154h108q91 0 140 61q27 33 71 145l33 84z" />
<glyph unicode="&#x4f4;" horiz-adv-x="1472" d="M48 1637v203h203v-203h-203zM461 1637v203h203v-203h-203zM151 1004q5 -105 45.5 -187t107 -135.5t159 -86.5t199 -44.5t230.5 -5.5v-555h198v1489h-198v-765h-228q-35 4 -74.5 13.5t-92.5 35t-83 59.5q-58 63 -58 182v477l-205 -1v-476z" />
<glyph unicode="&#x4f5;" horiz-adv-x="1261" d="M-1 1269v203h203v-203h-203zM412 1269v203h203v-203h-203zM96 783q0 -237 252 -312q163 -49 428 -32l-1 -454h171v1124l-172 -1l1 -511h-163q-152 -2 -228.5 42t-76.5 144v329l-210 -1q0 -108 -0.5 -170.5t-0.5 -157.5z" />
<glyph unicode="&#x4f8;" horiz-adv-x="1967" d="M1032 1637v203h203v-203h-203zM1445 1637v203h203v-203h-203zM151 -10h199q217 0 358 23.5t229.5 80t123 145.5t29.5 226q-5 105 -45.5 187t-107 135.5t-159 86.5t-199 44.5t-230.5 5.5v555h-198v-1489zM349 160v595h229q34 -4 73.5 -13.5t92.5 -35t84 -58.5 q57 -64 57 -183q0 -92 -26 -150t-83 -97q-49 -34 -137 -46.5t-220 -11.5h-70zM1248 -9v1490h184v-1490h-184z" />
<glyph unicode="&#x4f9;" horiz-adv-x="1731" d="M-86 1269v203h203v-203h-203zM327 1269v203h203v-203h-203zM136 0v1124h171l-1 -454q659 41 680 -318v-27q0 -66 -22 -119.5t-63 -90t-92 -62.5t-114.5 -40.5t-125.5 -21t-129 -6.5zM307 151q9 -1 24.5 -3.5t49.5 -5.5t53 -2q186 0 263.5 40t77.5 145q0 101 -76.5 144.5 t-228.5 42.5h-162zM1086 1v1118l184 1v-1120z" />
<glyph unicode="&#x2000;" horiz-adv-x="1045" />
<glyph unicode="&#x2001;" horiz-adv-x="2090" />
<glyph unicode="&#x2002;" horiz-adv-x="1045" />
<glyph unicode="&#x2003;" horiz-adv-x="2090" />
<glyph unicode="&#x2004;" horiz-adv-x="696" />
<glyph unicode="&#x2005;" horiz-adv-x="522" />
<glyph unicode="&#x2006;" horiz-adv-x="348" />
<glyph unicode="&#x2007;" horiz-adv-x="348" />
<glyph unicode="&#x2008;" horiz-adv-x="261" />
<glyph unicode="&#x2009;" horiz-adv-x="418" />
<glyph unicode="&#x200a;" horiz-adv-x="116" />
<glyph unicode="&#x2010;" horiz-adv-x="883" d="M90 566v164h539v-164h-539z" />
<glyph unicode="&#x2011;" horiz-adv-x="883" d="M90 566v164h539v-164h-539z" />
<glyph unicode="&#x2012;" horiz-adv-x="883" d="M90 566v164h539v-164h-539z" />
<glyph unicode="&#x2013;" d="M-4 572v160h1125v-160h-1125z" />
<glyph unicode="&#x2014;" horiz-adv-x="1862" d="M-4 572v161h1873v-161h-1873z" />
<glyph unicode="&#x2018;" horiz-adv-x="564" d="M-63 1550l246 1l3 -179l98 -375l-150 -1l-194 375z" />
<glyph unicode="&#x2019;" horiz-adv-x="564" d="M96 1002l97 376v178h251v-178l-195 -376h-153z" />
<glyph unicode="&#x201a;" horiz-adv-x="564" d="M-12 -238l82 320v172h211v-172l-164 -320h-129z" />
<glyph unicode="&#x201c;" horiz-adv-x="1002" d="M-63 1363v187h209v-187l82 -344h-128zM344 1363v187h210v-187l81 -344h-128z" />
<glyph unicode="&#x201d;" horiz-adv-x="1002" d="M106 998h128l164 364v194h-210v-194zM515 998h129l163 364v194h-211v-194z" />
<glyph unicode="&#x201e;" horiz-adv-x="1002" d="M-8 -238l82 320v172h211v-172l-164 -320h-129zM402 -238l82 320v172h211v-172l-164 -320h-129z" />
<glyph unicode="&#x2020;" d="M135 1034v123h365v339h176v-339h365v-123h-365v-901h-176v901h-365z" />
<glyph unicode="&#x2021;" d="M135 478v130h367v460h-367v129h367v356h176v-356h367v-129h-367v-460h367v-130h-367v-357h-176v357h-367z" />
<glyph unicode="&#x2022;" d="M115 658q0 151 97 248q98 98 245 98q145 0 239 -99q96 -97 96 -247q0 -151 -96 -250t-242 -99q-147 0 -243 99t-96 250z" />
<glyph unicode="&#x2026;" horiz-adv-x="2048" d="M176 0v254h213v-254h-213zM739 0v254h212v-254h-212zM1292 0v254h213v-254h-213z" />
<glyph unicode="&#x202f;" horiz-adv-x="418" />
<glyph unicode="&#x2030;" horiz-adv-x="3432" d="M106 1105q-5 172 84 280q99 120 275 120q180 -1 277 -121q85 -108 85 -282q0 -201 -86 -323q-95 -135 -276 -135q-179 0 -275 139q-84 123 -84 322zM272 1104q0 -126 39 -209q48 -108 154 -108q105 -2 155 107q39 82 39 209q0 109 -40 182q-49 92 -155 94 q-104 0 -156 -93q-39 -72 -36 -182zM426 -25l989 1526l169 -1l-989 -1526zM1183 373q0 195 88 338q97 157 276 157q179 -2 275 -159q86 -144 87 -339q-2 -174 -89 -279q-96 -120 -275 -120q-180 0 -277 121q-85 107 -85 281zM1352 372q-1 -109 39 -182q49 -93 155 -93 q104 -2 155 93q38 71 40 181q-1 106 -41 206q-50 125 -153 126q-106 0 -157 -123q-39 -97 -38 -208zM2028 370q-3 195 85 336q97 156 276 156q180 0 275 -159q86 -144 90 -336q-2 -174 -89 -280q-98 -120 -276 -120q-179 2 -276 121q-86 109 -85 282zM2195 369 q-1 -109 39 -182q52 -93 157 -94q103 0 155 94q38 71 40 181q-5 109 -43 205q-50 125 -154 125q-106 0 -157 -122q-40 -96 -37 -207z" />
<glyph unicode="&#x2039;" horiz-adv-x="870" d="M123 612v85l497 443v-202l-319 -284l319 -283v-202z" />
<glyph unicode="&#x203a;" horiz-adv-x="870" d="M152 166v198l311 278l-311 278v197l484 -433v-84z" />
<glyph unicode="&#x205f;" horiz-adv-x="522" />
<glyph unicode="&#x20ac;" d="M-29 527l55 123h80l-1 53v102v52h-134l55 123h96q39 248 185 393q154 154 401 154q197 0 415 -142v-213q-215 195 -407 195q-325 0 -391 -387h577l-55 -123h-538v-87v-120h446l-56 -123h-374q68 -389 391 -389q192 0 407 195v-211q-223 -144 -415 -144q-246 0 -402 154 q-145 143 -184 395h-151z" />
<glyph unicode="&#x2122;" horiz-adv-x="1763" d="M106 1372h229l-6 -587h133v587h229v117h-585v-117zM846 785h123v623l231 -460h85l224 453v-616h124v704h-227l-161 -372l-161 372h-238v-704z" />
<glyph unicode="&#x2202;" d="M68 400q0 210 109 358q122 164 318 164q216 0 299 -215q34 197 34 373q0 298 -161 298q-49 0 -143 -67q-94 -66 -120 -66q-37 0 -65 25t-28 61q0 87 99 141q80 43 174 43q228 0 347 -222q92 -179 92 -436q0 -321 -124 -573q-156 -319 -436 -319q-176 0 -287 129 q-108 123 -108 306zM277 303q0 -274 184 -274q149 0 224 203q55 144 55 329q0 277 -186 277q-148 0 -223 -204q-54 -148 -54 -331z" />
<glyph unicode="&#x2206;" horiz-adv-x="1442" d="M-10 0l579 1473h224l579 -1473h-1382zM262 178h836l-418 1084z" />
<glyph unicode="&#x220f;" horiz-adv-x="1609" d="M156 -187v1660h1080v-1660h-209v1478h-662v-1478h-209z" />
<glyph unicode="&#x2211;" horiz-adv-x="1453" d="M127 -55l607 713l-582 658v157h1053v-172h-803l562 -638l-580 -679h842v-171h-1099v132z" />
<glyph unicode="&#x221a;" horiz-adv-x="1676" d="M82 898l337 111l305 -804l614 1582h226v-109h-137l-708 -1821h-78l-381 1001l-148 -51z" />
<glyph unicode="&#x221e;" horiz-adv-x="2048" d="M111 644q0 197 89 334q106 159 297 159q233 0 410 -333q169 339 414 339q189 0 307 -159q106 -142 106 -335q0 -198 -90 -333q-105 -157 -297 -157q-223 0 -412 325q-174 -331 -412 -331q-190 0 -307 157q-105 140 -105 334zM208 636q0 -123 70 -207q75 -89 196 -89 q198 0 370 375q-126 222 -342 222q-136 0 -215 -84q-79 -82 -79 -217zM1001 579q128 -224 341 -224q134 0 214 85q81 87 81 218q0 123 -70 207q-75 89 -196 89q-127 0 -232 -132q-61 -78 -138 -243z" />
<glyph unicode="&#x222b;" d="M74 -223q0 119 129 119q65 0 96 -57q4 -11 14 -59q9 -42 25 -42q107 0 120 688l3 165q8 381 55 577q93 382 349 382q75 0 124 -37q56 -41 56 -112q0 -117 -119 -117q-85 0 -110 73l-10 50q-7 37 -21 37q-105 0 -121 -619l-8 -303q-9 -353 -61 -543q-95 -350 -341 -350 q-74 0 -124 36q-56 41 -56 112z" />
<glyph unicode="&#x2248;" horiz-adv-x="1676" d="M190 287v175q170 144 326 144q96 0 220 -57l31 -15q127 -60 213 -60q140 0 306 157v-175q-170 -144 -326 -144q-94 0 -219 57q-164 75 -245 75q-146 0 -306 -157zM190 669v174q169 145 326 145q86 0 220 -58l6 -3q166 -72 238 -72q140 0 306 157v-174 q-167 -145 -326 -145q-94 0 -219 57q-164 75 -245 75q-146 0 -306 -156z" />
<glyph unicode="&#x2260;" horiz-adv-x="1676" d="M193 359v169h377l167 238h-544v167h664l220 312l107 -101l-149 -211h260v-167h-378l-168 -238h546v-169h-665l-222 -310l-108 101l150 209h-257z" />
<glyph unicode="&#x2264;" horiz-adv-x="1676" d="M201 0v169h1077v-169h-1077zM201 652v170l1077 365v-175l-807 -276l807 -273v-177z" />
<glyph unicode="&#x2265;" horiz-adv-x="1676" d="M215 0v169h1072v-169h-1072zM215 286v177l804 273l-804 276v175l1072 -365v-170z" />
<glyph unicode="&#x25ca;" horiz-adv-x="1676" d="M119 602l624 1070l624 -1070l-624 -1079zM263 602l480 -833l481 833l-481 824z" />
<glyph unicode="&#xe000;" horiz-adv-x="1120" d="M0 1120h1120v-1120h-1120v1120z" />
<glyph unicode="&#xfb01;" horiz-adv-x="1387" d="M29 977v143h176v78q0 358 352 358h185v-153h-176q-99 0 -138 -42q-38 -41 -38 -142v-99h690v-1120h-185v977h-505v-977h-185v977h-176zM895 1321h185v235h-185v-235z" />
<glyph unicode="&#xfb02;" horiz-adv-x="1402" d="M29 977v143h176v78q0 186 88 272t275 86h512v-1556h-185v1403h-329q-99 0 -138 -42q-38 -41 -38 -142v-99h303v-143h-303v-977h-185v977h-176z" />
<glyph unicode="&#xfb03;" horiz-adv-x="2184" d="M1693 0v1120h184v-1120h-184zM1693 1323v233h184v-233h-184zM812 980v143l117 -3v78q0 186 88 272t275 86h174v-153h-176q-99 0 -138 -42q-38 -41 -38 -142v-99h303v-143h-303v-977h-185v977zM29 980v143l117 -3v78q0 186 88 272t275 86h174v-153h-176q-99 0 -138 -42 q-38 -41 -38 -142v-99h303v-143h-303v-977h-185v977z" />
<glyph unicode="&#xfb04;" horiz-adv-x="2184" d="M1705 0v1556h184v-1556h-184zM812 980v143l117 -3v78q0 186 88 272t275 86h174v-153h-176q-99 0 -138 -42q-38 -41 -38 -142v-99h303v-143h-303v-977h-185v977zM29 980v143l117 -3v78q0 186 88 272t275 86h174v-153h-176q-99 0 -138 -42q-38 -41 -38 -142v-99h303v-143 h-303v-977h-185v977z" />
</font>
</defs>
</svg>
